<svg xmlns="http://www.w3.org/2000/svg" width="34" height="33" viewBox="0 0 34 33" fill="none">
  <path d="M30.0293 0H3.60352C2.6478 0 1.73124 0.371345 1.05545 1.03234C0.379655 1.69334 0 2.58985 0 3.52464L0 29.372C0 30.3068 0.379655 31.2033 1.05545 31.8643C1.73124 32.5253 2.6478 32.8966 3.60352 32.8966H13.9073V21.7125H9.1777V16.4483H13.9073V12.4361C13.9073 7.87243 16.685 5.35158 20.9394 5.35158C22.9769 5.35158 25.1075 5.70698 25.1075 5.70698V10.1862H22.76C20.4469 10.1862 19.7255 11.5902 19.7255 13.0302V16.4483H24.889L24.0632 21.7125H19.7255V32.8966H30.0293C30.985 32.8966 31.9016 32.5253 32.5774 31.8643C33.2532 31.2033 33.6328 30.3068 33.6328 29.372V3.52464C33.6328 2.58985 33.2532 1.69334 32.5774 1.03234C31.9016 0.371345 30.985 0 30.0293 0Z" fill="#D9D9D9"/>
</svg>