<svg xmlns="http://www.w3.org/2000/svg" width="61" height="26" viewBox="0 0 61 26" fill="none">
  <path d="M26.2991 18.4678L34.5 20.5L46.5 23.5L50.2535 24.4252C52.3694 24.9467 54.5397 25.2149 56.7188 25.2242L59.9991 25.2382L60.0252 19.1132L60.0513 12.9883L60.1035 0.738403L56.7918 1.2243L53.4801 1.71019L46 2L33.533 2.68199L27.7195 3.07398C22.8902 3.39962 18.2034 4.84728 14.0317 7.30188L7.68781 11.0346L1.3439 14.7673C-0.139909 15.6404 0.609035 17.9198 2.32151 17.7426L9.5 17L14.2729 17C18.3263 17 22.3647 17.4929 26.2991 18.4678Z" fill="#1E1E1E" fill-opacity="0.7"/>
</svg>