<svg xmlns="http://www.w3.org/2000/svg" width="25" height="49" viewBox="0 0 25 49" fill="none">
  <path d="M2.95971 40.4805L0.579675 43.8508C-1.12855 46.2697 1.81102 49.2443 4.25 47.5649L8.43418 44.1963C12.1205 41.2286 15.3036 37.6851 17.8605 33.7028C20.9246 28.9307 23.0365 23.6109 24.0799 18.0366L24.1948 17.423C24.7304 14.5614 25 11.6563 25 8.74493V6.56067V3.28033V0H18.875H12.75H0.5L1 3.30962L1.5 6.61925L2.5 13.2385L3.92408 22.6648C4.30681 25.1982 4.40258 27.7666 4.2096 30.3215L3.57055 38.7815C3.52438 39.3927 3.31327 39.9799 2.95971 40.4805Z" fill="#1E1E1E" fill-opacity="0.7"/>
</svg>