<svg width="478" height="117" viewBox="0 0 478 117" fill="none" xmlns="http://www.w3.org/2000/svg">
<mask id="path-1-outside-1_245_127" maskUnits="userSpaceOnUse" x="1" y="1" width="479" height="117" fill="black">
<rect fill="white" x="1" y="1" width="479" height="117"/>
<path d="M68.086 4.90909H97.7025V74.7955C97.7025 83.1051 95.7139 90.2962 91.7366 96.3686C87.7948 102.406 82.2906 107.075 75.2238 110.378C68.1571 113.645 59.9539 115.278 50.6144 115.278C41.2039 115.278 32.9653 113.645 25.8985 110.378C18.8318 107.075 13.3275 102.406 9.38574 96.3686C5.47949 90.2962 3.52637 83.1051 3.52637 74.7955V4.90909H33.1428V72.2386C33.1428 75.6122 33.8886 78.6307 35.3801 81.294C36.8715 83.9219 38.9312 85.9815 41.559 87.473C44.2224 88.9645 47.2409 89.7102 50.6144 89.7102C54.0235 89.7102 57.042 88.9645 59.6698 87.473C62.2977 85.9815 64.3573 83.9219 65.8488 81.294C67.3403 78.6307 68.086 75.6122 68.086 72.2386V4.90909ZM141.395 4.90909V114H111.778V4.90909H141.395ZM227.288 114H185.313V4.90909H226.862C238.083 4.90909 247.778 7.09304 255.946 11.4609C264.149 15.7933 270.47 22.0433 274.909 30.2109C279.383 38.343 281.62 48.0909 281.62 59.4545C281.62 70.8182 279.401 80.5838 274.962 88.7514C270.523 96.8835 264.237 103.134 256.105 107.501C247.973 111.834 238.367 114 227.288 114ZM214.93 88.858H226.223C231.62 88.858 236.219 87.9879 240.019 86.2479C243.854 84.5078 246.766 81.5071 248.755 77.2457C250.779 72.9844 251.791 67.054 251.791 59.4545C251.791 51.8551 250.761 45.9247 248.701 41.6633C246.677 37.402 243.694 34.4013 239.752 32.6612C235.846 30.9212 231.052 30.0511 225.37 30.0511H214.93V88.858ZM295.323 114V4.90909H373.945V28.7727H324.94V47.5227H369.897V71.3864H324.94V90.1364H373.732V114H295.323ZM447.441 39C447.157 35.4489 445.825 32.679 443.446 30.6903C441.102 28.7017 437.533 27.7074 432.739 27.7074C429.685 27.7074 427.181 28.0803 425.228 28.826C423.311 29.5362 421.89 30.5128 420.967 31.7557C420.044 32.9986 419.564 34.419 419.529 36.017C419.458 37.331 419.688 38.5206 420.221 39.5859C420.789 40.6158 421.677 41.5568 422.884 42.4091C424.092 43.2259 425.637 43.9716 427.519 44.6463C429.401 45.321 431.638 45.9247 434.23 46.4574L443.179 48.375C449.216 49.6534 454.383 51.3402 458.68 53.4354C462.977 55.5305 466.492 57.9986 469.227 60.8395C471.961 63.6449 473.968 66.8054 475.246 70.321C476.56 73.8366 477.235 77.6719 477.27 81.8267C477.235 89 475.441 95.0724 471.89 100.044C468.339 105.016 463.261 108.798 456.656 111.39C450.086 113.982 442.185 115.278 432.952 115.278C423.47 115.278 415.196 113.876 408.13 111.07C401.098 108.265 395.63 103.95 391.723 98.1264C387.853 92.267 385.899 84.7741 385.864 75.6477H413.989C414.166 78.9858 415.001 81.7912 416.492 84.0639C417.984 86.3366 420.079 88.0589 422.778 89.2308C425.512 90.4027 428.762 90.9886 432.526 90.9886C435.686 90.9886 438.332 90.598 440.463 89.8168C442.593 89.0355 444.209 87.9524 445.31 86.5675C446.411 85.1825 446.979 83.6023 447.014 81.8267C446.979 80.1577 446.429 78.7017 445.363 77.4588C444.333 76.1804 442.629 75.044 440.25 74.0497C437.87 73.0199 434.657 72.0611 430.608 71.1733L419.742 68.8295C410.083 66.7344 402.465 63.2365 396.89 58.3359C391.35 53.3999 388.598 46.6705 388.634 38.1477C388.598 31.223 390.445 25.1683 394.174 19.9837C397.938 14.7635 403.14 10.6974 409.781 7.78551C416.457 4.87358 424.11 3.41761 432.739 3.41761C441.546 3.41761 449.163 4.89133 455.59 7.83878C462.018 10.7862 466.972 14.9411 470.452 20.3033C473.968 25.63 475.743 31.8622 475.779 39H447.441Z"/>
</mask>
<path d="M68.086 4.90909H97.7025V74.7955C97.7025 83.1051 95.7139 90.2962 91.7366 96.3686C87.7948 102.406 82.2906 107.075 75.2238 110.378C68.1571 113.645 59.9539 115.278 50.6144 115.278C41.2039 115.278 32.9653 113.645 25.8985 110.378C18.8318 107.075 13.3275 102.406 9.38574 96.3686C5.47949 90.2962 3.52637 83.1051 3.52637 74.7955V4.90909H33.1428V72.2386C33.1428 75.6122 33.8886 78.6307 35.3801 81.294C36.8715 83.9219 38.9312 85.9815 41.559 87.473C44.2224 88.9645 47.2409 89.7102 50.6144 89.7102C54.0235 89.7102 57.042 88.9645 59.6698 87.473C62.2977 85.9815 64.3573 83.9219 65.8488 81.294C67.3403 78.6307 68.086 75.6122 68.086 72.2386V4.90909ZM141.395 4.90909V114H111.778V4.90909H141.395ZM227.288 114H185.313V4.90909H226.862C238.083 4.90909 247.778 7.09304 255.946 11.4609C264.149 15.7933 270.47 22.0433 274.909 30.2109C279.383 38.343 281.62 48.0909 281.62 59.4545C281.62 70.8182 279.401 80.5838 274.962 88.7514C270.523 96.8835 264.237 103.134 256.105 107.501C247.973 111.834 238.367 114 227.288 114ZM214.93 88.858H226.223C231.62 88.858 236.219 87.9879 240.019 86.2479C243.854 84.5078 246.766 81.5071 248.755 77.2457C250.779 72.9844 251.791 67.054 251.791 59.4545C251.791 51.8551 250.761 45.9247 248.701 41.6633C246.677 37.402 243.694 34.4013 239.752 32.6612C235.846 30.9212 231.052 30.0511 225.37 30.0511H214.93V88.858ZM295.323 114V4.90909H373.945V28.7727H324.94V47.5227H369.897V71.3864H324.94V90.1364H373.732V114H295.323ZM447.441 39C447.157 35.4489 445.825 32.679 443.446 30.6903C441.102 28.7017 437.533 27.7074 432.739 27.7074C429.685 27.7074 427.181 28.0803 425.228 28.826C423.311 29.5362 421.89 30.5128 420.967 31.7557C420.044 32.9986 419.564 34.419 419.529 36.017C419.458 37.331 419.688 38.5206 420.221 39.5859C420.789 40.6158 421.677 41.5568 422.884 42.4091C424.092 43.2259 425.637 43.9716 427.519 44.6463C429.401 45.321 431.638 45.9247 434.23 46.4574L443.179 48.375C449.216 49.6534 454.383 51.3402 458.68 53.4354C462.977 55.5305 466.492 57.9986 469.227 60.8395C471.961 63.6449 473.968 66.8054 475.246 70.321C476.56 73.8366 477.235 77.6719 477.27 81.8267C477.235 89 475.441 95.0724 471.89 100.044C468.339 105.016 463.261 108.798 456.656 111.39C450.086 113.982 442.185 115.278 432.952 115.278C423.47 115.278 415.196 113.876 408.13 111.07C401.098 108.265 395.63 103.95 391.723 98.1264C387.853 92.267 385.899 84.7741 385.864 75.6477H413.989C414.166 78.9858 415.001 81.7912 416.492 84.0639C417.984 86.3366 420.079 88.0589 422.778 89.2308C425.512 90.4027 428.762 90.9886 432.526 90.9886C435.686 90.9886 438.332 90.598 440.463 89.8168C442.593 89.0355 444.209 87.9524 445.31 86.5675C446.411 85.1825 446.979 83.6023 447.014 81.8267C446.979 80.1577 446.429 78.7017 445.363 77.4588C444.333 76.1804 442.629 75.044 440.25 74.0497C437.87 73.0199 434.657 72.0611 430.608 71.1733L419.742 68.8295C410.083 66.7344 402.465 63.2365 396.89 58.3359C391.35 53.3999 388.598 46.6705 388.634 38.1477C388.598 31.223 390.445 25.1683 394.174 19.9837C397.938 14.7635 403.14 10.6974 409.781 7.78551C416.457 4.87358 424.11 3.41761 432.739 3.41761C441.546 3.41761 449.163 4.89133 455.59 7.83878C462.018 10.7862 466.972 14.9411 470.452 20.3033C473.968 25.63 475.743 31.8622 475.779 39H447.441Z" fill="url(#paint0_linear_245_127)"/>
<path d="M68.086 4.90909V2.90909H66.086V4.90909H68.086ZM97.7025 4.90909H99.7025V2.90909H97.7025V4.90909ZM91.7366 96.3686L90.0635 95.2728L90.062 95.2752L91.7366 96.3686ZM75.2238 110.378L76.0631 112.193L76.0706 112.19L75.2238 110.378ZM25.8985 110.378L25.0518 112.19L25.0593 112.193L25.8985 110.378ZM9.38574 96.3686L7.70367 97.4506L7.71111 97.462L9.38574 96.3686ZM3.52637 4.90909V2.90909H1.52637V4.90909H3.52637ZM33.1428 4.90909H35.1428V2.90909H33.1428V4.90909ZM35.3801 81.294L33.635 82.2713L33.6407 82.2812L35.3801 81.294ZM41.559 87.473L40.5718 89.2124L40.5818 89.218L41.559 87.473ZM59.6698 87.473L60.657 89.2124L60.657 89.2124L59.6698 87.473ZM65.8488 81.294L67.5882 82.2813L67.5938 82.2712L65.8488 81.294ZM68.086 6.90909H97.7025V2.90909H68.086V6.90909ZM95.7025 4.90909V74.7955H99.7025V4.90909H95.7025ZM95.7025 74.7955C95.7025 82.7737 93.7978 89.5713 90.0635 95.2728L93.4097 97.4644C97.6299 91.021 99.7025 83.4365 99.7025 74.7955H95.7025ZM90.062 95.2752C86.3405 100.975 81.135 105.408 74.377 108.566L76.0706 112.19C83.4461 108.743 89.2491 103.836 93.4112 97.462L90.062 95.2752ZM74.3845 108.562C67.6281 111.686 59.7211 113.278 50.6144 113.278V117.278C60.1868 117.278 68.686 115.604 76.0631 112.193L74.3845 108.562ZM50.6144 113.278C41.4343 113.278 33.4924 111.685 26.7378 108.562L25.0593 112.193C32.4382 115.605 40.9735 117.278 50.6144 117.278V113.278ZM26.7453 108.566C19.9873 105.408 14.7818 100.975 11.0604 95.2752L7.71111 97.462C11.8732 103.836 17.6762 108.743 25.0518 112.19L26.7453 108.566ZM11.0678 95.2866C7.39902 89.5833 5.52637 82.7807 5.52637 74.7955H1.52637C1.52637 83.4295 3.55997 91.009 7.7037 97.4506L11.0678 95.2866ZM5.52637 74.7955V4.90909H1.52637V74.7955H5.52637ZM3.52637 6.90909H33.1428V2.90909H3.52637V6.90909ZM31.1428 4.90909V72.2386H35.1428V4.90909H31.1428ZM31.1428 72.2386C31.1428 75.9176 31.9593 79.2788 33.6351 82.2712L37.1251 80.3168C35.8179 77.9826 35.1428 75.3069 35.1428 72.2386H31.1428ZM33.6407 82.2812C35.3104 85.2231 37.63 87.5427 40.5718 89.2124L42.5463 85.7336C40.2324 84.4204 38.4327 82.6206 37.1194 80.3068L33.6407 82.2812ZM40.5818 89.218C43.5743 90.8938 46.9355 91.7102 50.6144 91.7102V87.7102C47.5462 87.7102 44.8705 87.0352 42.5362 85.728L40.5818 89.218ZM50.6144 91.7102C54.3244 91.7102 57.6912 90.8957 60.657 89.2124L58.6826 85.7336C56.3928 87.0333 53.7226 87.7102 50.6144 87.7102V91.7102ZM60.657 89.2124C63.5989 87.5427 65.9185 85.2231 67.5882 82.2812L64.1094 80.3068C62.7962 82.6206 60.9964 84.4204 58.6826 85.7336L60.657 89.2124ZM67.5938 82.2712C69.2696 79.2788 70.086 75.9176 70.086 72.2386H66.086C66.086 75.3069 65.411 77.9826 64.1038 80.3168L67.5938 82.2712ZM70.086 72.2386V4.90909H66.086V72.2386H70.086ZM141.395 4.90909H143.395V2.90909H141.395V4.90909ZM141.395 114V116H143.395V114H141.395ZM111.778 114H109.778V116H111.778V114ZM111.778 4.90909V2.90909H109.778V4.90909H111.778ZM139.395 4.90909V114H143.395V4.90909H139.395ZM141.395 112H111.778V116H141.395V112ZM113.778 114V4.90909H109.778V114H113.778ZM111.778 6.90909H141.395V2.90909H111.778V6.90909ZM185.313 114H183.313V116H185.313V114ZM185.313 4.90909V2.90909H183.313V4.90909H185.313ZM255.946 11.4609L255.002 13.2246L255.012 13.2294L255.946 11.4609ZM274.909 30.2109L273.151 31.166L273.156 31.1751L274.909 30.2109ZM274.962 88.7514L276.717 89.7097L276.719 89.7064L274.962 88.7514ZM256.105 107.501L257.046 109.267L257.052 109.263L256.105 107.501ZM214.93 88.858H212.93V90.858H214.93V88.858ZM240.019 86.2479L239.192 84.4265L239.186 84.4295L240.019 86.2479ZM248.755 77.2457L246.948 76.3876L246.942 76.4L248.755 77.2457ZM248.701 41.6633L246.895 42.5215L246.901 42.5337L248.701 41.6633ZM239.752 32.6612L238.939 34.4882L238.945 34.4909L239.752 32.6612ZM214.93 30.0511V28.0511H212.93V30.0511H214.93ZM227.288 112H185.313V116H227.288V112ZM187.313 114V4.90909H183.313V114H187.313ZM185.313 6.90909H226.862V2.90909H185.313V6.90909ZM226.862 6.90909C237.823 6.90909 247.18 9.04144 255.002 13.2246L256.889 9.69729C248.376 5.14464 238.343 2.90909 226.862 2.90909V6.90909ZM255.012 13.2294C262.865 17.3773 268.9 23.344 273.151 31.166L276.666 29.2559C272.039 20.7427 265.432 14.2093 256.88 9.69243L255.012 13.2294ZM273.156 31.1751C277.436 38.9525 279.62 48.3531 279.62 59.4545H283.62C283.62 47.8287 281.331 37.7336 276.661 29.2468L273.156 31.1751ZM279.62 59.4545C279.62 70.5581 277.453 79.9803 273.205 87.7964L276.719 89.7064C281.349 81.1873 283.62 71.0783 283.62 59.4545H279.62ZM273.206 87.7932C268.953 95.5859 262.948 101.556 255.159 105.739L257.052 109.263C265.527 104.711 272.093 98.1812 276.717 89.7097L273.206 87.7932ZM255.165 105.736C247.375 109.886 238.105 112 227.288 112V116C238.629 116 248.571 113.781 257.046 109.267L255.165 105.736ZM214.93 90.858H226.223V86.858H214.93V90.858ZM226.223 90.858C231.827 90.858 236.726 89.9555 240.851 88.0663L239.186 84.4295C235.712 86.0204 231.413 86.858 226.223 86.858V90.858ZM240.845 88.0692C245.166 86.1087 248.402 82.7314 250.567 78.0915L246.942 76.4C245.13 80.2828 242.542 82.9069 239.192 84.4266L240.845 88.0692ZM250.561 78.1039C252.767 73.4595 253.791 67.19 253.791 59.4545H249.791C249.791 66.9179 248.79 72.5092 246.948 76.3876L250.561 78.1039ZM253.791 59.4545C253.791 51.716 252.749 45.4415 250.502 40.793L246.901 42.5337C248.773 46.408 249.791 51.9943 249.791 59.4545H253.791ZM250.508 40.8052C248.299 36.155 244.983 32.7842 240.56 30.8316L238.945 34.4909C242.405 36.0184 245.055 38.649 246.895 42.5215L250.508 40.8052ZM240.566 30.8343C236.334 28.9492 231.245 28.0511 225.37 28.0511V32.0511C230.859 32.0511 235.358 32.8931 238.939 34.4882L240.566 30.8343ZM225.37 28.0511H214.93V32.0511H225.37V28.0511ZM212.93 30.0511V88.858H216.93V30.0511H212.93ZM295.323 114H293.323V116H295.323V114ZM295.323 4.90909V2.90909H293.323V4.90909H295.323ZM373.945 4.90909H375.945V2.90909H373.945V4.90909ZM373.945 28.7727V30.7727H375.945V28.7727H373.945ZM324.94 28.7727V26.7727H322.94V28.7727H324.94ZM324.94 47.5227H322.94V49.5227H324.94V47.5227ZM369.897 47.5227H371.897V45.5227H369.897V47.5227ZM369.897 71.3864V73.3864H371.897V71.3864H369.897ZM324.94 71.3864V69.3864H322.94V71.3864H324.94ZM324.94 90.1364H322.94V92.1364H324.94V90.1364ZM373.732 90.1364H375.732V88.1364H373.732V90.1364ZM373.732 114V116H375.732V114H373.732ZM297.323 114V4.90909H293.323V114H297.323ZM295.323 6.90909H373.945V2.90909H295.323V6.90909ZM371.945 4.90909V28.7727H375.945V4.90909H371.945ZM373.945 26.7727H324.94V30.7727H373.945V26.7727ZM322.94 28.7727V47.5227H326.94V28.7727H322.94ZM324.94 49.5227H369.897V45.5227H324.94V49.5227ZM367.897 47.5227V71.3864H371.897V47.5227H367.897ZM369.897 69.3864H324.94V73.3864H369.897V69.3864ZM322.94 71.3864V90.1364H326.94V71.3864H322.94ZM324.94 92.1364H373.732V88.1364H324.94V92.1364ZM371.732 90.1364V114H375.732V90.1364H371.732ZM373.732 112H295.323V116H373.732V112ZM447.441 39L445.447 39.1595L445.594 41H447.441V39ZM443.446 30.6903L442.152 32.2154L442.157 32.2201L442.163 32.2249L443.446 30.6903ZM425.228 28.826L425.923 30.7015L425.932 30.698L425.942 30.6944L425.228 28.826ZM420.967 31.7557L419.361 30.563L419.361 30.563L420.967 31.7557ZM419.529 36.017L421.526 36.125L421.527 36.0933L421.528 36.0615L419.529 36.017ZM420.221 39.5859L418.432 40.4804L418.45 40.5166L418.47 40.5521L420.221 39.5859ZM422.884 42.4091L421.731 44.043L421.747 44.0545L421.764 44.0657L422.884 42.4091ZM434.23 46.4574L434.649 44.5018L434.641 44.5L434.633 44.4983L434.23 46.4574ZM443.179 48.375L442.76 50.3306L442.765 50.3316L443.179 48.375ZM469.227 60.8395L467.786 62.2265L467.795 62.2355L469.227 60.8395ZM475.246 70.321L473.366 71.0045L473.369 71.0129L473.373 71.0212L475.246 70.321ZM477.27 81.8267L479.27 81.8366L479.27 81.8231L479.27 81.8096L477.27 81.8267ZM471.89 100.044L473.518 101.207L473.518 101.207L471.89 100.044ZM456.656 111.39L455.925 109.528L455.922 109.53L456.656 111.39ZM408.13 111.07L407.388 112.928L407.392 112.929L408.13 111.07ZM391.723 98.1264L390.054 99.2288L390.062 99.2405L391.723 98.1264ZM385.864 75.6477V73.6477H383.856L383.864 75.6555L385.864 75.6477ZM413.989 75.6477L415.986 75.5415L415.885 73.6477H413.989V75.6477ZM416.492 84.0639L414.82 85.1612L414.82 85.1612L416.492 84.0639ZM422.778 89.2308L421.981 91.0654L421.99 91.0691L422.778 89.2308ZM440.463 89.8168L441.151 91.6945L441.151 91.6945L440.463 89.8168ZM445.31 86.5675L446.876 87.812L446.876 87.812L445.31 86.5675ZM447.014 81.8267L449.014 81.8667L449.015 81.8254L449.014 81.7842L447.014 81.8267ZM445.363 77.4588L443.806 78.7135L443.825 78.7372L443.845 78.7604L445.363 77.4588ZM440.25 74.0497L439.455 75.8852L439.467 75.8902L439.478 75.8951L440.25 74.0497ZM430.608 71.1733L431.037 69.2197L431.03 69.2183L430.608 71.1733ZM419.742 68.8295L419.318 70.7841L419.32 70.7846L419.742 68.8295ZM396.89 58.3359L395.56 59.8292L395.57 59.8381L396.89 58.3359ZM388.634 38.1477L390.634 38.1561L390.634 38.1468L390.634 38.1375L388.634 38.1477ZM394.174 19.9837L392.551 18.8139L392.55 18.8159L394.174 19.9837ZM409.781 7.78551L408.981 5.95229L408.978 5.95387L409.781 7.78551ZM455.59 7.83878L454.757 9.65675L454.757 9.65675L455.59 7.83878ZM470.452 20.3033L468.774 21.3921L468.779 21.3985L468.783 21.405L470.452 20.3033ZM475.779 39V41H477.789L477.779 38.99L475.779 39ZM449.434 38.8405C449.114 34.8408 447.582 31.5408 444.728 29.1558L442.163 32.2249C444.068 33.8172 445.199 36.0569 445.447 39.1595L449.434 38.8405ZM444.74 29.1653C441.88 26.739 437.755 25.7074 432.739 25.7074V29.7074C437.311 29.7074 440.324 30.6644 442.152 32.2154L444.74 29.1653ZM432.739 25.7074C429.543 25.7074 426.775 26.0946 424.515 26.9576L425.942 30.6944C427.588 30.0659 429.826 29.7074 432.739 29.7074V25.7074ZM424.534 26.9505C422.367 27.753 420.579 28.9239 419.361 30.563L422.572 32.9483C423.201 32.1017 424.254 31.3195 425.923 30.7015L424.534 26.9505ZM419.361 30.563C418.183 32.1499 417.574 33.9746 417.529 35.9726L421.528 36.0615C421.555 34.8635 421.905 33.8473 422.572 32.9483L419.361 30.563ZM417.532 35.9091C417.444 37.5324 417.729 39.0729 418.432 40.4804L422.01 38.6915C421.648 37.9683 421.471 37.1296 421.526 36.125L417.532 35.9091ZM418.47 40.5521C419.217 41.9059 420.338 43.0598 421.731 44.043L424.038 40.7752C423.016 40.0538 422.362 39.3256 421.972 38.6198L418.47 40.5521ZM421.764 44.0657C423.15 45.0035 424.858 45.8171 426.844 46.529L428.194 42.7636C426.415 42.1261 425.033 41.4482 424.005 40.7525L421.764 44.0657ZM426.844 46.529C428.838 47.2438 431.171 47.8705 433.828 48.4165L434.633 44.4983C432.105 43.979 429.964 43.3982 428.194 42.7636L426.844 46.529ZM433.811 48.413L442.76 50.3306L443.598 46.4194L434.649 44.5018L433.811 48.413ZM442.765 50.3316C448.686 51.5854 453.689 53.2268 457.803 55.233L459.557 51.6377C455.077 49.4536 449.747 47.7214 443.594 46.4184L442.765 50.3316ZM457.803 55.233C461.933 57.2466 465.245 59.5861 467.786 62.2264L470.668 59.4526C467.74 56.4111 464.021 53.8145 459.557 51.6377L457.803 55.233ZM467.795 62.2355C470.341 64.8476 472.19 67.768 473.366 71.0045L477.126 69.6375C475.746 65.8428 473.582 62.4422 470.659 59.4435L467.795 62.2355ZM473.373 71.0212C474.597 74.2961 475.236 77.8974 475.27 81.8438L479.27 81.8096C479.233 77.4463 478.523 73.3772 477.119 69.6209L473.373 71.0212ZM475.27 81.8168C475.236 88.6507 473.534 94.302 470.263 98.8816L473.518 101.207C477.349 95.8429 479.233 89.3493 479.27 81.8366L475.27 81.8168ZM470.263 98.8816C466.971 103.49 462.229 107.054 455.925 109.528L457.386 113.252C464.292 110.541 469.707 106.541 473.518 101.207L470.263 98.8816ZM455.922 109.53C449.646 112.006 442.007 113.278 432.952 113.278V117.278C442.363 117.278 450.527 115.958 457.39 113.25L455.922 109.53ZM432.952 113.278C423.663 113.278 415.649 111.904 408.867 109.211L407.392 112.929C414.743 115.848 423.278 117.278 432.952 117.278V113.278ZM408.871 109.213C402.183 106.544 397.048 102.474 393.384 97.0123L390.062 99.2405C394.211 105.426 400.014 109.986 407.388 112.928L408.871 109.213ZM393.392 97.024C389.792 91.5738 387.898 84.4922 387.864 75.6399L383.864 75.6555C383.9 85.0561 385.913 92.9603 390.055 99.2288L393.392 97.024ZM385.864 77.6477H413.989V73.6477H385.864V77.6477ZM411.992 75.754C412.184 79.3647 413.095 82.5318 414.82 85.1612L418.165 82.9666C416.907 81.0506 416.149 78.6069 415.986 75.5415L411.992 75.754ZM414.82 85.1612C416.543 87.7867 418.956 89.7516 421.981 91.0653L423.575 87.3963C421.202 86.3663 419.425 84.8866 418.165 82.9666L414.82 85.1612ZM421.99 91.0691C425.03 92.3719 428.56 92.9886 432.526 92.9886V88.9886C428.963 88.9886 425.995 88.4335 423.566 87.3925L421.99 91.0691ZM432.526 92.9886C435.836 92.9886 438.732 92.5816 441.151 91.6945L439.774 87.939C437.932 88.6145 435.537 88.9886 432.526 88.9886V92.9886ZM441.151 91.6945C443.531 90.822 445.49 89.5553 446.876 87.812L443.744 85.323C442.928 86.3495 441.656 87.249 439.774 87.939L441.151 91.6945ZM446.876 87.812C448.25 86.0825 448.97 84.0787 449.014 81.8667L445.015 81.7867C444.988 83.1259 444.571 84.2826 443.744 85.323L446.876 87.812ZM449.014 81.7842C448.969 79.6624 448.255 77.759 446.882 76.1572L443.845 78.7604C444.602 79.6444 444.989 80.6529 445.015 81.8692L449.014 81.7842ZM446.921 76.2041C445.596 74.5594 443.549 73.2608 441.021 72.2044L439.478 75.8951C441.709 76.8273 443.071 77.8014 443.806 78.7135L446.921 76.2041ZM441.044 72.2143C438.498 71.1124 435.146 70.1208 431.037 69.2197L430.18 73.1269C434.168 74.0014 437.242 74.9273 439.455 75.8852L441.044 72.2143ZM431.03 69.2183L420.163 66.8745L419.32 70.7846L430.187 73.1283L431.03 69.2183ZM420.166 66.875C410.733 64.8289 403.46 61.4475 398.211 56.8338L395.57 59.8381C401.471 65.0255 409.433 68.6399 419.318 70.7841L420.166 66.875ZM398.221 56.8427C393.175 52.3466 390.6 46.1998 390.634 38.1561L386.634 38.1394C386.596 47.1411 389.526 54.4531 395.56 59.8292L398.221 56.8427ZM390.634 38.1375C390.6 31.5977 392.336 25.9637 395.797 21.1514L392.55 18.8159C388.553 24.373 386.596 30.8483 386.634 38.158L390.634 38.1375ZM395.796 21.1534C399.326 16.2584 404.228 12.4042 410.584 9.61715L408.978 5.95387C402.052 8.99072 396.55 13.2685 392.551 18.8139L395.796 21.1534ZM410.58 9.61872C416.962 6.83519 424.335 5.41761 432.739 5.41761V1.41761C423.885 1.41761 415.952 2.91196 408.981 5.9523L410.58 9.61872ZM432.739 5.41761C441.327 5.41761 448.647 6.85491 454.757 9.65675L456.424 6.0208C449.679 2.92776 441.765 1.41761 432.739 1.41761V5.41761ZM454.757 9.65675C460.877 12.4634 465.522 16.3812 468.774 21.3921L472.13 19.2145C468.421 13.5009 463.159 9.10899 456.424 6.0208L454.757 9.65675ZM468.783 21.405C472.06 26.37 473.745 32.2129 473.779 39.01L477.779 38.99C477.741 31.5115 475.875 24.8899 472.121 19.2016L468.783 21.405ZM475.779 37H447.441V41H475.779V37Z" fill="url(#paint1_radial_245_127)" mask="url(#path-1-outside-1_245_127)"/>
<path d="M110 24.9307V7.69438C110 5.05831 112.055 2.87913 114.686 2.72434L138.509 1.32297C141.488 1.14775 144 3.51613 144 6.5L143.054 21.6864C142.887 24.3783 139.204 25.0082 138.151 22.5252C137.388 20.7253 134.969 20.4142 133.775 21.9625L133.685 22.0797C132.479 23.6434 130.047 23.3802 129.203 21.5947L128.337 19.7606C127.73 18.4749 126.251 17.8538 124.908 18.3205C123.747 18.7238 122.989 19.8409 123.042 21.0687L123.492 31.5C123.492 33.7054 120.308 34.0196 119.877 31.8567L118.686 25.8816C118.236 23.6232 115.079 23.4356 114.365 25.6248C113.575 28.0455 110 27.477 110 24.9307Z" fill="#FFB000" stroke="black"/>
<path d="M1.40136 89.3L1.0125 6.65622C1.00561 5.19126 2.19127 4 3.65625 4H18H31.7059C33.393 4 34.6434 5.56689 34.2689 7.21199C34.2253 7.4034 34.2033 7.59908 34.2033 7.79538V14.5V25.4128L33.4067 46.8256V80.5671C33.4067 83.2048 29.5949 83.5734 29.0895 80.9846C28.6647 78.8083 25.6164 78.6488 24.8747 80.7384C24.1286 82.8405 21.0719 82.7112 20.5981 80.5315L19.3894 74.9713C18.9889 73.129 16.8137 72.3224 15.3088 73.4581C14.662 73.9463 14.2817 74.7097 14.2817 75.5201V100.874C14.2817 100.958 14.2757 101.042 14.2639 101.125C13.9649 103.213 10.9176 103.114 10.7551 101.01L9.88564 89.7597C9.68987 87.2263 6.02414 87.0943 5.64666 89.6071C5.2552 92.213 1.41376 91.9351 1.40136 89.3Z" fill="#FFB000" stroke="black"/>
<path d="M143.56 92.0079L144.049 109.427C144.12 111.986 142.188 114.159 139.638 114.386L116.852 116.414C113.882 116.679 111.303 114.385 111.22 111.404L111.71 96.1432C111.794 93.527 115.361 92.8316 116.422 95.2247C117.197 96.9753 119.587 97.2095 120.688 95.6428L120.752 95.5518C121.855 93.981 124.239 94.1675 125.085 95.8908L125.993 97.7418C126.607 98.993 128.078 99.5646 129.376 99.0567C130.467 98.6296 131.155 97.543 131.073 96.3739L130.338 85.8584C130.278 83.7188 133.364 83.3368 133.827 85.4263L135.142 91.353C135.628 93.5402 138.712 93.6316 139.326 91.4769C140.003 89.1023 143.491 89.5398 143.56 92.0079Z" fill="#FFB000" stroke="black"/>
<path d="M183 65.3205L184.054 4.89118C184.058 4.65251 184.157 4.4251 184.327 4.25827C184.497 4.0927 184.724 4 184.961 4H198.927H215.916H229.72L237.088 4.42984C238.119 4.48999 239.143 4.62989 240.153 4.84829L245.848 6.08081L253.975 8.81607C255.76 9.41716 257.452 10.2676 259 11.3421L263.479 14.4517C264.431 15.1123 265.323 15.8543 266.146 16.6692L273.346 23.7992C275.386 25.8191 276.967 28.2545 277.982 30.9398L282.034 41.6601C282.635 43.2506 283.031 44.9112 283.212 46.6019L284.977 63.0889C284.992 63.2311 284.991 63.3747 284.972 63.5166L284.657 65.9266C284.395 67.9376 281.431 67.7683 281.4 65.7404C281.396 65.5055 281.342 65.274 281.24 65.0619L280.888 64.3227C278.511 59.3381 271.068 60.7237 270.644 66.2297L270.081 73.5334C270.074 73.6194 270.078 73.706 270.092 73.7912C270.306 75.1004 268.429 75.5703 268.002 74.3145L264.447 63.8775C263.736 61.7887 260.662 62.2255 260.561 64.4298L260.267 70.8298C260.147 73.4257 257.154 74.8117 255.097 73.2233L254.909 73.0773C254.091 72.4459 253.612 71.4713 253.612 70.4383V63.8942C253.612 63.1171 253.496 62.3444 253.268 61.6016L247.554 42.9996C246.505 39.5849 241.558 39.9484 241.02 43.4797C240.446 47.2426 235.044 47.3022 234.388 43.5529L233.244 37.021C232.951 35.3504 230.727 34.9653 229.89 36.4403C229.778 36.6373 229.704 36.8535 229.672 37.0778L229.624 37.4124C229.05 41.4391 223.28 41.5605 222.537 37.5615L221.71 33.11C221.42 31.5492 220.173 30.3438 218.603 30.1074C216.351 29.7682 214.324 31.5124 214.324 33.7902V83.6139C214.324 86.2576 210.497 86.6136 210.01 84.0153C209.597 81.817 206.516 81.6526 205.793 83.7694C205.068 85.8931 201.986 85.7587 201.527 83.5622L200.307 77.7222C199.916 75.853 197.698 75.0444 196.196 76.2234C195.574 76.7115 195.211 77.4584 195.211 78.2491V85.7293C195.211 86.3078 194.999 86.8664 194.617 87.3003C193.237 88.8643 190.656 88.0182 190.47 85.9411L189.837 78.8693C189.68 77.1175 187.414 76.527 186.422 77.9793C185.382 79.5017 183 78.7657 183 76.9221V65.3205Z" fill="#FFB000" stroke="black"/>
<defs>
<linearGradient id="paint0_linear_245_127" x1="115.5" y1="12.5" x2="230.641" y2="258.136" gradientUnits="userSpaceOnUse">
<stop stop-color="#191817"/>
<stop offset="1" stop-color="#FFB000"/>
</linearGradient>
<radialGradient id="paint1_radial_245_127" cx="0" cy="0" r="1" gradientUnits="userSpaceOnUse" gradientTransform="translate(239 59) rotate(90) scale(91 243)">
<stop/>
<stop offset="1" stop-color="#1E1E1E" stop-opacity="0.94"/>
</radialGradient>
</defs>
</svg>
