<svg width="456" height="148" viewBox="0 0 456 148" fill="none" xmlns="http://www.w3.org/2000/svg">
<g clip-path="url(#clip0_244_119)">
<path d="M45.0057 113H3.03125V3.90909H44.5795C55.8011 3.90909 65.4957 6.09304 73.6634 10.4609C81.8665 14.7933 88.1875 21.0433 92.6264 29.2109C97.1009 37.343 99.3381 47.0909 99.3381 58.4545C99.3381 69.8182 97.1186 79.5838 92.6797 87.7514C88.2408 95.8835 81.9553 102.134 73.8232 106.501C65.6911 110.834 56.0852 113 45.0057 113ZM32.6477 87.858H43.9403C49.3381 87.858 53.9368 86.9879 57.7365 85.2479C61.5717 83.5078 64.4837 80.5071 66.4723 76.2457C68.4965 71.9844 69.5085 66.054 69.5085 58.4545C69.5085 50.8551 68.4787 44.9247 66.419 40.6633C64.3949 36.402 61.4119 33.4013 57.4702 31.6612C53.5639 29.9212 48.7699 29.0511 43.0881 29.0511H32.6477V87.858ZM113.041 113V3.90909H191.663V27.7727H142.657V46.5227H187.615V70.3864H142.657V89.1364H191.45V113H113.041ZM236.181 3.90909L258.553 80.8267H259.406L281.778 3.90909H315.229L279.221 113H238.738L202.729 3.90909H236.181ZM391.202 114.705C383.389 114.705 376.66 113.32 371.013 110.55C365.367 107.78 361.035 104.069 358.016 99.4169C354.998 94.7649 353.488 89.6335 353.488 84.0227C353.488 79.9389 354.27 76.3345 355.832 73.2095C357.395 70.049 359.579 67.1548 362.384 64.527C365.189 61.8991 368.474 59.3068 372.238 56.75L396.954 41.4091C399.44 39.8466 401.127 38.2308 402.015 36.5618C402.903 34.8572 403.346 33.348 403.346 32.0341C403.346 30.294 402.707 28.7493 401.429 27.3999C400.15 26.0504 398.162 25.3935 395.463 25.429C393.794 25.429 392.356 25.7486 391.148 26.3878C389.941 26.9915 389 27.8437 388.325 28.9446C387.686 30.0455 387.366 31.3594 387.366 32.8864C387.366 34.9815 387.97 37.13 389.177 39.3317C390.385 41.4979 392.036 43.8416 394.131 46.3629C396.226 48.8842 398.588 51.7074 401.216 54.8324L454.057 113H424.653L380.335 66.125C378.169 63.8168 375.772 60.9936 373.144 57.6555C370.516 54.282 368.243 50.4822 366.326 46.2564C364.444 42.0305 363.503 37.4318 363.503 32.4602C363.503 26.9205 364.834 21.8601 367.498 17.2791C370.161 12.6982 373.89 9.04048 378.684 6.30611C383.478 3.57173 389.071 2.20454 395.463 2.20454C401.571 2.20454 406.827 3.4652 411.23 5.9865C415.669 8.50781 419.078 11.8636 421.457 16.054C423.872 20.2443 425.079 24.8608 425.079 29.9034C425.079 34.9815 423.819 39.7223 421.297 44.1257C418.812 48.5291 415.243 52.3821 410.591 55.6847L388.006 71.6648C386.265 72.8722 384.756 74.2571 383.478 75.8196C382.235 77.3821 381.613 79.4062 381.613 81.892C381.613 83.9517 382.093 85.7095 383.052 87.1655C384.01 88.6214 385.36 89.7401 387.1 90.5213C388.876 91.3026 390.953 91.6932 393.332 91.6932C396.954 91.6932 400.577 90.8232 404.199 89.0831C407.856 87.3075 411.194 84.8395 414.213 81.679C417.231 78.483 419.646 74.7188 421.457 70.3864C423.304 66.0185 424.227 61.2599 424.227 56.1108H447.452C447.452 62.4318 446.795 68.522 445.481 74.3814C444.167 80.2408 442.054 85.603 439.142 90.468C436.23 95.3331 432.395 99.4347 427.636 102.773C426.145 103.518 424.689 104.229 423.268 104.903C421.848 105.578 420.392 106.288 418.9 107.034C414.532 109.839 409.969 111.828 405.211 113C400.452 114.136 395.782 114.705 391.202 114.705Z" fill="white" fill-opacity="0.8"/>
<path d="M50.3772 86.5H34.2458C33.7493 86.5 33.2535 86.463 32.7624 86.3894L17.8537 84.153C15.0797 83.737 12.2585 84.5051 10.0783 86.27L6.70802 88.9983C4.36263 90.8969 3 93.7531 3 96.7707V106.5V112.19C3 113.725 4.77634 114.579 5.97549 113.62C6.96309 112.83 8.43525 113.255 8.8498 114.449L11.0753 120.864C12.3469 124.529 17.5306 124.529 18.8022 120.864C20.146 116.991 25.7183 117.284 26.6484 121.277L31.2682 141.106C32.513 146.449 40.2829 145.926 40.8008 140.464L42.2018 125.69C42.4494 123.079 46.1545 122.808 46.78 125.354L47.3446 127.653C47.8858 129.856 51.108 129.557 51.2338 127.291L51.5494 121.61C51.6239 120.269 53.5357 120.104 53.8398 121.411C54.1626 122.799 56.2186 122.498 56.1297 121.076L56.0175 119.28C56.006 119.095 56.0335 118.911 56.0984 118.738L56.2181 118.418C56.9634 116.431 59.8643 116.736 60.1805 118.834C60.5599 121.352 64.274 121.074 64.274 118.528V112.258C64.274 111.082 65.0844 110.062 66.2294 109.795L67.3174 109.542C67.4387 109.514 67.5563 109.472 67.6677 109.416C68.5956 108.952 69.7119 109.489 69.9292 110.503L73.251 126.005C73.4833 127.089 74.9713 127.234 75.4081 126.215C75.4687 126.073 75.5 125.921 75.5 125.767V110.876C75.5 109.651 75.8494 108.451 76.5072 107.417L77.4058 106.005C78.3578 104.509 80.1604 103.79 81.8808 104.22L83.402 104.601C85.2296 105.057 87 103.675 87 101.791V100.141C87 98.4349 88.948 97.461 90.313 98.4847L90.4529 98.5897C91.6217 99.4663 93.3044 98.8042 93.5625 97.3662L94.2135 93.739C94.3701 92.8665 95.5687 92.7384 95.9063 93.5581C96.1681 94.1941 97.023 94.3027 97.4356 93.7525L97.6687 93.4418C97.8773 93.1636 97.9432 92.8036 97.8466 92.4695L95.8942 85.7179C95.1613 83.1833 93.4563 81.041 91.1508 79.7579L85.8572 76.8118C84.4622 76.0355 82.7214 76.2786 81.5925 77.4075C80.6194 78.3806 79.174 78.7085 77.8763 78.2504L71.3761 75.9563C69.0189 75.1243 66.4111 76.1778 65.2932 78.4136C65.0986 78.8029 64.8536 79.1647 64.5645 79.49L62.7759 81.5021C61.6124 82.8111 60.1255 83.7915 58.4641 84.3453L53.5395 85.9868C52.5198 86.3267 51.452 86.5 50.3772 86.5Z" fill="#FFB000"/>
<path d="M155.127 28.4617L146.168 32.3436C144.656 32.9992 142.892 32.3967 142.097 30.9523L141.46 29.7953C140.576 28.1912 138.298 28.1173 137.313 29.6607L137.24 29.7738C136.386 31.1114 134.47 31.2135 133.479 29.9742C132.499 28.7498 130.612 28.8317 129.742 30.1364L129.172 30.9911C128.279 32.3312 126.421 32.6008 125.184 31.5697C123.564 30.2202 121.092 31.1559 120.772 33.2394L119.03 44.5725C119.01 44.7 118.981 44.826 118.944 44.9494C118.065 47.8258 113.847 47.311 113.686 44.3078L113 31.5V14.5V8V4.29036C113 3.51976 113.493 2.83562 114.224 2.5919C114.407 2.53103 114.598 2.5 114.79 2.5H125H150L171.25 2.75H190.5C191.642 2.89283 192.5 3.86398 192.5 5.01534L192.5 6.5L192.5 14.5V26.236V44.5L192.726 48.3475C192.868 50.7686 189.507 51.5188 188.607 49.2669C188.536 49.0898 188.489 48.9039 188.468 48.7144L186.396 30.4896C186.192 28.6919 184.384 27.5384 182.668 28.1105L182.257 28.2474C181.774 28.4086 181.378 28.7625 181.165 29.2252L180.322 31.0524C179.792 32.1997 178.092 31.943 177.925 30.6905C177.773 29.553 176.305 29.1921 175.643 30.1296L173.489 33.1816C172.474 34.6199 170.382 34.7332 169.217 33.4131L166.203 29.9967C165.435 29.127 164 29.6697 164 30.8296C164 30.9427 163.985 31.0553 163.954 31.1643L163.906 31.3391C163.134 34.1395 159.047 33.7537 158.813 30.8582L158.797 30.6642C158.651 28.8665 156.782 27.7446 155.127 28.4617Z" fill="#FFB000"/>
<path d="M393.199 54.487L392.366 46.1648C392.269 45.1887 390.936 44.9836 390.549 45.8852C390.157 46.8013 388.798 46.5709 388.729 45.5766L388.152 37.2052C388.117 36.6905 387.405 36.5867 387.224 37.0697C387.016 37.6253 386.183 37.3829 386.305 36.8023L387.941 29.0311C387.98 28.8469 388.066 28.676 388.191 28.5353L389.159 27.4458C389.715 26.821 390.384 26.3079 391.132 25.9341L391.348 25.8261C392.434 25.2828 393.632 25 394.847 25H396.5H397.937C398.641 25 399.341 25.1135 400.008 25.3362L400.187 25.3956C401.366 25.7887 402.393 26.5404 403.124 27.5457L403.424 27.9579C403.802 28.478 404.047 29.0831 404.136 29.72L405.65 40.5079C405.752 41.2363 404.841 41.6478 404.362 41.0893C403.91 40.5614 403.045 40.8972 403.067 41.5921L403.167 44.6724C403.205 45.8645 401.487 46.0842 401.224 44.9208C400.982 43.848 399.43 43.9208 399.289 45.0116L398.057 54.5566C398.019 54.8498 397.929 55.1336 397.79 55.3945C396.652 57.5275 393.439 56.8924 393.199 54.487Z" fill="#FFB000"/>
<path d="M434.994 5

6H429.244H426.369H424.931C424.137 56 423.494 56.6436 423.494 57.4375V58V59.1724C423.494 59.7232 423.448 60.2731 423.358 60.8164L422.994 63L422.498 65.477C422.495 65.4923 422.491 65.5074 422.485 65.522C422.355 65.8765 419.928 71.932 419.816 72.293C419.586 73.038 419.314 73.9321 418.994 75C416.979 81.7143 418.459 85.2729 419.649 86.8865C420.119 87.5251 420.976 87.2579 421.214 86.5008C421.621 85.1997 423.535 85.4648 423.574 86.8277L423.718 91.8501C423.758 93.2391 425.749 93.4243 426.044 92.0665C426.332 90.7422 428.262 90.8736 428.368 92.2247L428.9 99.0307C429.075 101.264 432.277 101.451 432.711 99.2541C433.106 97.2562 435.927 97.1575 436.461 99.1229L438.15 105.344C438.543 106.791 440.694 106.395 440.546 104.903L439.446 93.8162C439.342 92.7654 440.746 92.3172 441.27 93.234C441.812 94.1829 443.266 93.6643 443.085 92.5865L442.963 91.8607C442.829 91.062 443.828 90.5898 444.36 91.2004L444.601 91.4761C444.954 91.8813 445.62 91.6891 445.702 91.158C445.797 90.5541 446.608 90.4217 446.889 90.9643L447.26 91.6807C447.719 92.5645 449.061 92.1551 448.948 91.1661L447.5 78.5L446.789 72.4534C446.732 71.9724 447.388 71.7763 447.605 72.2096C447.829 72.6587 448.51 72.4285 448.416 71.9353L447.599 67.6425C447.514 67.1972 448.136 66.9996 448.324 67.4123C448.509 67.8189 449.121 67.6342 449.051 67.1932L447.521 57.6325C447.507 57.5443 447.5 57.4551 447.5 57.3658V56.75V56.375C447.5 56.1679 447.332 56 447.125 56H445.559H443.619H440.744H434.994Z" fill="#FFB000"/>
</g>
<defs>
<clipPath id="clip0_244_119">
<rect width="456" height="148" fill="white"/>
</clipPath>
</defs>
</svg>
