<svg xmlns="http://www.w3.org/2000/svg" width="34" height="33" viewBox="0 0 34 33" fill="none">
  <path d="M11.2494 26.4883C11.2494 26.6244 11.0934 26.7332 10.8968 26.7332C10.673 26.7536 10.517 26.6448 10.517 26.4883C10.517 26.3523 10.673 26.2434 10.8696 26.2434C11.0731 26.223 11.2494 26.3319 11.2494 26.4883ZM9.14053 26.1822C9.09307 26.3183 9.22868 26.4747 9.43211 26.5155C9.60841 26.5836 9.81183 26.5155 9.85252 26.3795C9.8932 26.2434 9.76437 26.087 9.56094 26.0258C9.38464 25.9781 9.188 26.0462 9.14053 26.1822ZM12.1376 26.0666C11.941 26.1142 11.8054 26.2434 11.8257 26.3999C11.8461 26.5359 12.0224 26.6244 12.2258 26.5768C12.4224 26.5291 12.5581 26.3999 12.5377 26.2638C12.5174 26.1346 12.3343 26.0462 12.1376 26.0666ZM16.5994 0C7.19444 0 0 7.16287 0 16.5977C0 24.1415 4.733 30.5969 11.4935 32.8689C12.3614 33.0254 12.6666 32.488 12.6666 32.0458C12.6666 31.6241 12.6462 29.2977 12.6462 27.8692C12.6462 27.8692 7.89964 28.8895 6.90286 25.8421C6.90286 25.8421 6.12985 23.8626 5.0178 23.3524C5.0178 23.3524 3.46499 22.2845 5.12629 22.3049C5.12629 22.3049 6.81471 22.4409 7.74368 24.0599C9.22868 26.6856 11.7172 25.9305 12.6869 25.4816C12.8429 24.3932 13.2836 23.6381 13.7718 23.1892C9.98135 22.7674 6.15697 22.2164 6.15697 15.6726C6.15697 13.802 6.67232 12.8632 7.75725 11.666C7.58095 11.2239 7.00458 9.40084 7.93355 7.04723C9.35074 6.60507 12.6123 8.88386 12.6123 8.88386C13.9685 8.50293 15.4263 8.30566 16.8707 8.30566C18.315 8.30566 19.7728 8.50293 21.129 8.88386C21.129 8.88386 24.3906 6.59827 25.8078 7.04723C26.7367 9.40764 26.1604 11.2239 25.9841 11.666C27.069 12.87 27.7335 13.8088 27.7335 15.6726C27.7335 22.2369 23.7396 22.7606 19.9491 23.1892C20.573 23.7266 21.1019 24.7469 21.1019 26.3455C21.1019 28.6379 21.0815 31.4744 21.0815 32.0322C21.0815 32.4744 21.3935 33.0118 22.2546 32.8553C29.0354 30.5969 33.6328 24.1415 33.6328 16.5977C33.6328 7.16287 26.0044 0 16.5994 0ZM6.59095 23.4613C6.5028 23.5293 6.52314 23.6858 6.63841 23.815C6.74691 23.9238 6.90286 23.9715 6.99101 23.883C7.07916 23.815 7.05882 23.6585 6.94355 23.5293C6.83506 23.4205 6.6791 23.3728 6.59095 23.4613ZM5.85862 22.9103C5.81115 22.9987 5.87896 23.1076 6.01458 23.1756C6.12307 23.2436 6.25869 23.2232 6.30615 23.128C6.35362 23.0395 6.28581 22.9307 6.15019 22.8627C6.01458 22.8219 5.90609 22.8423 5.85862 22.9103ZM8.0556 25.3319C7.94711 25.4204 7.98779 25.6244 8.14375 25.7537C8.29971 25.9101 8.49635 25.9305 8.5845 25.8217C8.67266 25.7333 8.63197 25.5292 8.49635 25.3999C8.34718 25.2435 8.14375 25.2231 8.0556 25.3319ZM7.28259 24.332C7.1741 24.4 7.1741 24.5769 7.28259 24.7333C7.39108 24.8898 7.57416 24.9578 7.66231 24.8898C7.77081 24.8013 7.77081 24.6245 7.66231 24.468C7.56738 24.3116 7.39108 24.2435 7.28259 24.332Z" fill="#D9D9D9"/>
</svg>