<svg xmlns="http://www.w3.org/2000/svg" width="29" height="24" viewBox="0 0 29 24" fill="none">
  <path d="M14.0319 6.4668L4.80507 14.2635V22.6785C4.80507 22.8964 4.88943 23.1053 5.03959 23.2594C5.18976 23.4134 5.39342 23.5 5.60579 23.5L11.2138 23.4851C11.4255 23.484 11.6281 23.397 11.7774 23.243C11.9267 23.0891 12.0105 22.8808 12.0105 22.6636V17.7494C12.0105 17.5315 12.0949 17.3225 12.2451 17.1685C12.3952 17.0144 12.5989 16.9278 12.8113 16.9278H16.0141C16.2265 16.9278 16.4302 17.0144 16.5803 17.1685C16.7305 17.3225 16.8149 17.5315 16.8149 17.7494V22.66C16.8145 22.7681 16.835 22.8752 16.8751 22.9752C16.9152 23.0751 16.9741 23.166 17.0485 23.2426C17.1229 23.3191 17.2113 23.3799 17.3086 23.4213C17.4059 23.4627 17.5102 23.4841 17.6156 23.4841L23.2216 23.5C23.434 23.5 23.6376 23.4134 23.7878 23.2594C23.938 23.1053 24.0223 22.8964 24.0223 22.6785V14.2579L14.7975 6.4668C14.6891 6.37712 14.554 6.32821 14.4147 6.32821C14.2754 6.32821 14.1403 6.37712 14.0319 6.4668ZM28.6065 11.7661L24.4227 8.22794V1.11614C24.4227 0.95273 24.3594 0.796012 24.2468 0.680463C24.1342 0.564915 23.9814 0.5 23.8222 0.5H21.0196C20.8604 0.5 20.7076 0.564915 20.595 0.680463C20.4824 0.796012 20.4191 0.95273 20.4191 1.11614V4.8443L15.9386 1.06223C15.5086 0.699208 14.969 0.500726 14.4122 0.500726C13.8554 0.500726 13.3158 0.699208 12.8858 1.06223L0.217945 11.7661C0.157134 11.8177 0.106823 11.881 0.0698857 11.9526C0.0329485 12.0241 0.0101095 12.1024 0.00267348 12.183C-0.00476251 12.2636 0.00335034 12.3448 0.0265485 12.4222C0.0497466 12.4996 0.0875753 12.5715 0.137873 12.6339L1.41402 14.2255C1.46418 14.2881 1.52588 14.3399 1.59558 14.378C1.66529 14.4161 1.74162 14.4397 1.82023 14.4475C1.89884 14.4553 1.97816 14.447 2.05367 14.4233C2.12918 14.3996 2.19939 14.3608 2.26028 14.3092L14.0319 4.36166C14.1403 4.27197 14.2754 4.22306 14.4147 4.22306C14.554 4.22306 14.6891 4.27197 14.7975 4.36166L26.5696 14.3092C26.6304 14.3608 26.7005 14.3997 26.7759 14.4235C26.8513 14.4473 26.9306 14.4556 27.0091 14.448C27.0876 14.4403 27.1639 14.4169 27.2337 14.379C27.3034 14.3411 27.3651 14.2895 27.4154 14.2271L28.6915 12.6354C28.7418 12.5727 28.7794 12.5004 28.8024 12.4227C28.8253 12.345 28.833 12.2634 28.8251 12.1826C28.8172 12.1018 28.7938 12.0235 28.7563 11.952C28.7188 11.8805 28.6678 11.8173 28.6065 11.7661Z" fill="#D9D9D9"/>
</svg>