<svg xmlns="http://www.w3.org/2000/svg" width="29" height="24" viewBox="0 0 29 24" fill="none">
  <path d="M14.0319 6.34711L4.80507 14.3125V22.9095C4.80507 23.1321 4.88943 23.3456 5.03959 23.503C5.18976 23.6604 5.39342 23.7488 5.60579 23.7488L11.2138 23.7336C11.4255 23.7325 11.6281 23.6436 11.7774 23.4863C11.9267 23.329 12.0105 23.1162 12.0105 22.8943V17.8738C12.0105 17.6512 12.0949 17.4377 12.2451 17.2803C12.3952 17.1229 12.5989 17.0345 12.8113 17.0345H16.0141C16.2265 17.0345 16.4302 17.1229 16.5803 17.2803C16.7305 17.4377 16.8149 17.6512 16.8149 17.8738V22.8906C16.8145 23.0011 16.835 23.1105 16.8751 23.2126C16.9152 23.3148 16.9741 23.4076 17.0485 23.4858C17.1229 23.564 17.2113 23.6261 17.3086 23.6684C17.4059 23.7108 17.5102 23.7326 17.6156 23.7326L23.2216 23.7488C23.434 23.7488 23.6376 23.6604 23.7878 23.503C23.938 23.3456 24.0223 23.1321 24.0223 22.9095V14.3068L14.7975 6.34711C14.6891 6.25549 14.554 6.20552 14.4147 6.20552C14.2754 6.20552 14.1403 6.25549 14.0319 6.34711ZM28.6065 11.7611L24.4227 8.14635V0.880691C24.4227 0.713745 24.3594 0.553637 24.2468 0.435588C24.1342 0.31754 23.9814 0.251221 23.8222 0.251221H21.0196C20.8604 0.251221 20.7076 0.31754 20.595 0.435588C20.4824 0.553637 20.4191 0.713745 20.4191 0.880691V4.68951L15.9386 0.825612C15.5086 0.454738 14.969 0.251962 14.4122 0.251962C13.8554 0.251962 13.3158 0.454738 12.8858 0.825612L0.217945 11.7611C0.157134 11.8138 0.106823 11.8785 0.0698857 11.9516C0.0329485 12.0246 0.0101095 12.1046 0.00267348 12.1869C-0.00476251 12.2693 0.00335034 12.3523 0.0265485 12.4314C0.0497466 12.5104 0.0875753 12.5839 0.137873 12.6476L1.41402 14.2737C1.46418 14.3376 1.52588 14.3906 1.59558 14.4295C1.66529 14.4684 1.74162 14.4925 1.82023 14.5005C1.89884 14.5084 1.97816 14.5 2.05367 14.4758C2.12918 14.4515 2.19939 14.4119 2.26028 14.3592L14.0319 4.19643C14.1403 4.1048 14.2754 4.05483 14.4147 4.05483C14.554 4.05483 14.6891 4.1048 14.7975 4.19643L26.5696 14.3592C26.6304 14.4119 26.7005 14.4516 26.7759 14.4759C26.8513 14.5002 26.9306 14.5087 27.0091 14.5009C27.0876 14.4931 27.1639 14.4692 27.2337 14.4305C27.3034 14.3918 27.3651 14.339 27.4154 14.2753L28.6915 12.6492C28.7418 12.5851 28.7794 12.5112 28.8024 12.4318C28.8253 12.3525 28.833 12.2691 28.8251 12.1866C28.8172 12.1041 28.7938 12.024 28.7563 11.951C28.7188 11.8779 28.6678 11.8134 28.6065 11.7611Z" fill="#1E1E1E"/>
</svg>