<svg xmlns="http://www.w3.org/2000/svg" width="45" height="35" viewBox="0 0 45 35" fill="none">
  <path d="M44 6V14.3052C44 18.1395 40.8916 21.2479 37.0573 21.2479H30.5H28.8575C27.7626 21.2479 26.8049 21.9851 26.5247 23.0436C26.5083 23.1058 26.4869 23.1666 26.4607 23.2255L24.5 27.6316C23.839 29.1624 22.9023 30.5588 21.7367 31.7511L20.0436 33.483C20.0148 33.5126 19.9809 33.5367 19.9436 33.5543C19.6416 33.697 19.3319 33.3729 19.4882 33.0777L19.9688 32.1698C19.9895 32.1305 20.0065 32.0894 20.0193 32.0469L20.2201 31.3831C20.7256 29.712 20.6595 27.9201 20.0322 26.2907L19.9351 26.0384C19.3295 24.4654 18.2102 23.1431 16.7587 22.2862C15.6073 21.6064 14.2947 21.2479 12.9577 21.2479H7.71875C3.96419 21.2479 0.878046 18.2862 0.723575 14.5348L0.5 9.10526V6.5C0.5 3.46243 2.96243 1 6 1H11.5H22.5H34H39C41.7614 1 44 3.23857 44 6Z" fill="url(#paint0_linear_100_222)" stroke="#FFB000" stroke-linejoin="round"/>
  <defs>
    <linearGradient id="paint0_linear_100_222" x1="22.5" y1="-1.89473" x2="22.998" y2="37.3054" gradientUnits="userSpaceOnUse">
      <stop offset="0.54812" stop-color="#1E1E1E"/>
      <stop offset="0.760417" stop-color="#3F331A" stop-opacity="0.26"/>
      <stop offset="1" stop-color="#FFB000" stop-opacity="0"/>
    </linearGradient>
  </defs>
</svg>