<svg xmlns="http://www.w3.org/2000/svg" width="34" height="33" viewBox="0 0 34 33" fill="none">
  <path d="M16.8202 8.01404C12.0482 8.01404 8.19905 11.7797 8.19905 16.4483C8.19905 21.1169 12.0482 24.8826 16.8202 24.8826C21.5922 24.8826 25.4413 21.1169 25.4413 16.4483C25.4413 11.7797 21.5922 8.01404 16.8202 8.01404ZM16.8202 21.9317C13.7364 21.9317 11.2153 19.4726 11.2153 16.4483C11.2153 13.424 13.7289 10.9649 16.8202 10.9649C19.9115 10.9649 22.425 13.424 22.425 16.4483C22.425 19.4726 19.9039 21.9317 16.8202 21.9317ZM27.8048 7.66903C27.8048 8.76277 26.9044 9.6363 25.7939 9.6363C24.6759 9.6363 23.7831 8.75543 23.7831 7.66903C23.7831 6.58263 24.6834 5.70176 25.7939 5.70176C26.9044 5.70176 27.8048 6.58263 27.8048 7.66903ZM33.5146 9.66566C33.3871 7.0304 32.7718 4.69611 30.7985 2.77289C28.8327 0.849667 26.4467 0.247743 23.7531 0.115614C20.9769 -0.0385378 12.6559 -0.0385378 9.87976 0.115614C7.19363 0.240403 4.80764 0.842327 2.83431 2.76555C0.860985 4.68877 0.253231 7.02306 0.118174 9.65832C-0.0393915 12.3743 -0.0393915 20.515 0.118174 23.231C0.245728 25.8662 0.860985 28.2005 2.83431 30.1237C4.80764 32.047 7.18613 32.6489 9.87976 32.781C12.6559 32.9352 20.9769 32.9352 23.7531 32.781C26.4467 32.6562 28.8327 32.0543 30.7985 30.1237C32.7643 28.2005 33.3796 25.8662 33.5146 23.231C33.6722 20.515 33.6722 12.3817 33.5146 9.66566ZM29.9281 26.1452C29.3429 27.5839 28.2099 28.6923 26.7318 29.2722C24.5184 30.1311 19.2662 29.9329 16.8202 29.9329C14.3741 29.9329 9.11444 30.1237 6.90851 29.2722C5.4379 28.6997 4.30492 27.5913 3.71218 26.1452C2.83431 23.9797 3.0369 18.8413 3.0369 16.4483C3.0369 14.0553 2.84181 8.90958 3.71218 6.75146C4.29742 5.31272 5.4304 4.20429 6.90851 3.62439C9.12194 2.76555 14.3741 2.96374 16.8202 2.96374C19.2662 2.96374 24.5259 2.77289 26.7318 3.62439C28.2024 4.19695 29.3354 5.30538 29.9281 6.75146C30.806 8.91692 30.6034 14.0553 30.6034 16.4483C30.6034 18.8413 30.806 23.9871 29.9281 26.1452Z" fill="#D9D9D9"/>
</svg>