<svg xmlns="http://www.w3.org/2000/svg" width="34" height="33" viewBox="0 0 34 33" fill="none">
  <path d="M31.2305 0H2.39484C1.07355 0 0 1.06474 0 2.37179V30.5248C0 31.8319 1.07355 32.8966 2.39484 32.8966H31.2305C32.5518 32.8966 33.6328 31.8319 33.6328 30.5248V2.37179C33.6328 1.06474 32.5518 0 31.2305 0ZM10.1649 28.1971H5.18005V12.4978H10.1724V28.1971H10.1649ZM7.67249 10.3536C6.07343 10.3536 4.78217 9.08329 4.78217 7.52657C4.78217 5.96986 6.07343 4.69952 7.67249 4.69952C9.26404 4.69952 10.5628 5.96986 10.5628 7.52657C10.5628 9.09063 9.27155 10.3536 7.67249 10.3536ZM28.8506 28.1971H23.8658V20.5604C23.8658 18.7393 23.8282 16.3969 21.2758 16.3969C18.6782 16.3969 18.2803 18.3795 18.2803 20.4282V28.1971H13.2955V12.4978H18.0776V14.6419H18.1452C18.8134 13.4083 20.4424 12.1086 22.8673 12.1086C27.9122 12.1086 28.8506 15.3616 28.8506 19.5911V28.1971Z" fill="#D9D9D9"/>
</svg>