<svg width="536" height="250" viewBox="0 0 536 250" fill="none" xmlns="http://www.w3.org/2000/svg">
<path d="M85.0057 153H43.0312V43.9091H84.5795C95.8011 43.9091 105.496 46.093 113.663 50.4609C121.866 54.7933 128.188 61.0433 132.626 69.2109C137.101 77.343 139.338 87.0909 139.338 98.4545C139.338 109.818 137.119 119.584 132.68 127.751C128.241 135.884 121.955 142.134 113.823 146.501C105.691 150.834 96.0852 153 85.0057 153ZM72.6477 127.858H83.9403C89.3381 127.858 93.9368 126.988 97.7365 125.248C101.572 123.508 104.484 120.507 106.472 116.246C108.496 111.984 109.509 106.054 109.509 98.4545C109.509 90.8551 108.479 84.9247 106.419 80.6633C104.395 76.402 101.412 73.4013 97.4702 71.6612C93.5639 69.9212 88.7699 69.0511 83.0881 69.0511H72.6477V127.858ZM153.041 153V43.9091H231.663V67.7727H182.657V86.5227H227.615V110.386H182.657V129.136H231.45V153H153.041ZM276.181 43.9091L298.553 120.827H299.406L321.778 43.9091H355.229L319.221 153H278.738L242.729 43.9091H276.181ZM431.202 154.705C423.389 154.705 416.66 153.32 411.013 150.55C405.367 147.78 401.035 144.069 398.016 139.417C394.998 134.765 393.488 129.634 393.488 124.023C393.488 119.939 394.27 116.335 395.832 113.21C397.395 110.049 399.579 107.155 402.384 104.527C405.189 101.899 408.474 99.3068 412.238 96.75L436.954 81.4091C439.44 79.8466 441.127 78.2308 442.015 76.5618C442.903 74.8572 443.346 73.348 443.346 72.0341C443.346 70.294 442.707 68.7493 441.429 67.3999C440.15 66.0504 438.162 65.3935 435.463 65.429C433.794 65.429 432.356 65.7486 431.148 66.3878C429.941 66.9915 429 67.8437 428.325 68.9446C427.686 70.0455 427.366 71.3594 427.366 72.8864C427.366 74.9815 427.97 77.13 429.177 79.3317C430.385 81.4979 432.036 83.8416 434.131 86.3629C436.226 88.8842 438.588 91.7074 441.216 94.8324L494.057 153H464.653L420.335 106.125C418.169 103.817 415.772 100.994 413.144 97.6555C410.516 94.282 408.243 90.4822 406.326 86.2564C404.444 82.0305 403.503 77.4318 403.503 72.4602C403.503 66.9205 404.834 61.8601 407.498 57.2791C410.161 52.6982 413.89 49.0405 418.684 46.3061C423.478 43.5717 429.071 42.2045 435.463 42.2045C441.571 42.2045 446.827 43.4652 451.23 45.9865C455.669 48.5078 459.078 51.8636 461.457 56.054C463.872 60.2443 465.079 64.8608 465.079 69.9034C465.079 74.9815 463.819 79.7223 461.297 84.1257C458.812 88.5291 455.243 92.3821 450.591 95.6847L428.006 111.665C426.265 112.872 424.756 114.257 423.478 115.82C422.235 117.382 421.613 119.406 421.613 121.892C421.613 123.952 422.093 125.71 423.052 127.165C424.01 128.621 425.36 129.74 427.1 130.521C428.876 131.303 430.953 131.693 433.332 131.693C436.954 131.693 440.577 130.823 444.199 129.083C447.856 127.308 451.194 124.839 454.213 121.679C457.231 118.483 459.646 114.719 461.457 110.386C463.304 106.018 464.227 101.26 464.227 96.1108H487.452C487.452 102.432 486.795 108.522 485.481 114.381C484.167 120.241 482.054 125.603 479.142 130.468C476.23 135.333 472.395 139.435 467.636 142.773C466.145 143.518 464.689 144.229 463.268 144.903C461.848 145.578 460.392 146.288 458.9 147.034C454.532 149.839 449.969 151.828 445.211 153C440.452 154.136 435.782 154.705 431.202 154.705Z" fill="white" fill-opacity="0.8"/>
<path d="M90.3772 126.5H74.2458C73.7493 126.5 73.2535 126.463 72.7624 126.389L57.8537 124.153C55.0797 123.737 52.2585 124.505 50.0783 126.27L46.708 128.998C44.3626 130.897 43 133.753 43 136.771V146.5V152.19C43 153.725 44.7763 154.579 45.9755 153.62C46.9631 152.83 48.4352 153.255 48.8498 154.449L51.0753 160.864C52.3469 164.529 57.5306 164.529 58.8022 160.864C60.146 156.991 65.7183 157.284 66.6484 161.277L71.2682 181.106C72.513 186.449 80.2829 185.926 80.8008 180.464L82.2018 165.69C82.4494 163.079 86.1545 162.808 86.78 165.354L87.3446 167.653C87.8858 169.856 91.108 169.557 91.2338 167.291L91.5494 161.61C91.6239 160.269 93.5357 160.104 93.8398 161.411C94.1626 162.799 96.2186 162.498 96.1297 161.076L96.0175 159.28C96.006 159.095 96.0335 158.911 96.0984 158.738L96.2181 158.418C96.9634 156.431 99.8643 156.736 100.181 158.834C100.56 161.352 104.274 161.074 104.274 158.528V152.258C104.274 151.082 105.084 150.062 106.229 149.795L107.317 149.542C107.439 149.514 107.556 149.472 107.668 149.416C108.596 148.952 109.712 149.489 109.929 150.503L113.251 166.005C113.483 167.089 114.971 167.234 115.408 166.215C115.469 166.073 115.5 165.921 115.5 165.767V150.876C115.5 149.651 115.849 148.451 116.507 147.417L117.406 146.005C118.358 144.509 120.16 143.79 121.881 144.22L123.402 144.601C125.23 145.057 127 143.675 127 141.791V140.141C127 138.435 128.948 137.461 130.313 138.485L130.453 138.59C131.622 139.466 133.304 138.804 133.562 137.366L134.214 133.739C134.37 132.867 135.569 132.738 135.906 133.558C136.168 134.194 137.023 134.303 137.436 133.752L137.669 133.442C137.877 133.164 137.943 132.804 137.847 132.47L135.894 125.718C135.161 123.183 133.456 121.041 131.151 119.758L125.857 116.812C124.462 116.035 122.721 116.279 121.592 117.408C120.619 118.381 119.174 118.708 117.876 118.25L111.376 115.956C109.019 115.124 106.411 116.178 105.293 118.414C105.099 118.803 104.854 119.165 104.564 119.49L102.776 121.502C101.612 122.811 100.126 123.791 98.4641 124.345L93.5395 125.987C92.5198 126.327 91.452 126.5 90.3772 126.5Z" fill="#FFB000"/>
<path d="M195.127 68.4617L186.168 72.3436C184.656 72.9992 182.892 72.3967 182.097 70.9523L181.46 69.7953C180.576 68.1912 178.298 68.1173 177.313 69.6607L177.24 69.7738C176.386 71.1114 174.47 71.2135 173.479 69.9742C172.499 68.7498 170.612 68.8317 169.742 70.1364L169.172 70.9911C168.279 72.3312 166.421 72.6008 165.184 71.5697C163.564 70.2202 161.092 71.1559 160.772 73.2394L159.03 84.5725C159.01 84.7 158.981 84.826 158.944 84.9494C158.065 87.8258 153.847 87.311 153.686 84.3078L153 71.5V54.5V48V44.2904C153 43.5198 153.493 42.8356 154.224 42.5919C154.407 42.531 154.598 42.5 154.79 42.5H165H190L211.25 42.75H230.5C231.642 42.8928 232.5 43.864 232.5 45.0153L232.5 46.5L232.5 54.5V66.236V84.5L232.726 88.3475C232.868 90.7686 229.507 91.5188 228.607 89.2669C228.536 89.0898 228.489 88.9039 228.468 88.7144L226.396 70.4896C226.192 68.6919 224.384 67.5384 222.668 68.1105L222.257 68.2474C221.774 68.4086 221.378 68.7625 221.165 69.2252L220.322 71.0524C219.792 72.1997 218.092 71.943 217.925 70.6905C217.773 69.553 216.305 69.1921 215.643 70.1296L213.489 73.1816C212.474 74.6199 210.382 74.7332 209.217 73.4131L206.203 69.9967C205.435 69.127 204 69.6697 204 70.8296C204 70.9427 203.985 71.0553 203.954 71.1643L203.906 71.3391C203.134 74.1395 199.047 73.7537 198.813 70.8582L198.797 70.6642C198.651 68.8665 196.782 67.7446 195.127 68.4617Z" fill="#FFB000"/>
<path d="M433.199 94.487L432.366 86.1648C432.269 85.1887 430.936 84.9836 430.549 85.8852C430.157 86.8013 428.798 86.5709 428.729 85.5766L428.152 77.2052C428.117 76.6905 427.405 76.5867 427.224 77.0697C427.016 77.6253 426.183 77.3829 426.305 76.8023L427.941 69.0311C427.98 68.8469 428.066 68.676 428.191 68.5353L429.159 67.4458C429.715 66.821 430.384 66.3079 431.132 65.9341L431.348 65.8261C432.434 65.2828 433.632 65 434.847 65H436.5H437.937C438.641 65 439.341 65.1135 440.008 65.3362L440.187 65.3956C441.366 65.7887 442.393 66.5404 443.124 67.5457L443.424 67.9579C443.802 68.478 444.047 69.0831 444.136 69.72L445.65 80.5079C445.752 81.2363 444.841 81.6478 444.362 81.0893C443.91 80.5614 443.045 80.8972 443.067 81.5921L443.167 84.6724C443.205 85.8645 441.487 86.0842 441.224 84.9208C440.982 83.848 439.43 83.9208 439.289 85.0116L438.057 94.5566C438.019 94.8498 437.929 95.1336 437.79 95.3945C436.652 97.5275 433.439 96.8924 433.199 94.487Z" fill="#FFB000"/>
<path d="M474.994 96H469.244H466.369H464.931C464.137 96 463.494 96.6436 463.494 97.4375V98V99.1724C463.494 99.7232 463.448 100.273 463.358 100.816L462.994 103L462.498 105.477C462.495 105.492 462.491 105.507 462.485 105.522C462.355 105.877 459.928 111.932 459.816 112.293C459.586 113.038 459.314 113.932 458.994 115C456.979 121.714 458.459 125.273 459.649 126.887C460.119 127.525 460.976 127.258 461.214 126.501C461.621 125.2 463.535 125.465 463.574 126.828L463.718 131.85C463.758 133.239 465.749 133.424 466.044 132.067C466.332 130.742 468.262 130.874 468.368 132.225L468.9 139.031C469.075 141.264 472.277 141.451 472.711 139.254C473.106 137.256 475.927 137.158 476.461 139.123L478.15 145.344C478.543 146.791 480.694 146.395 480.546 144.903L479.446 133.816C479.342 132.765 480.746 132.317 481.27 133.234C481.812 134.183 483.266 133.664 483.085 132.586L482.963 131.861C482.829 131.062 483.828 130.59 484.36 131.2L484.601 131.476C484.954 131.881 485.62 131.689 485.702 131.158C485.797 130.554 486.608 130.422 486.889 130.964L487.26 131.681C487.719 132.564 489.061 132.155 488.948 131.166L487.5 118.5L486.789 112.453C486.732 111.972 487.388 111.776 487.605 112.21C487.829 112.659 488.51 112.429 488.416 111.935L487.599 107.643C487.514 107.197 488.136 107 488.324 107.412C488.509 107.819 489.121 107.634 489.051 107.193L487.521 97.6325C487.507 97.5443 487.5 97.4551 487.5 97.3658V96.75V96.375C487.5 96.1679 487.332 96 487.125 96H485.559H483.619H480.744H474.994Z" fill="#FFB000"/>
<rect x="40" y="4" width="68.3906" height="30" rx="3" fill="#404040"/>
<rect x="40.5" y="4.5" width="67.3906" height="29" rx="2.5" stroke="black" stroke-opacity="0.14902"/>
<path d="M51.3438 16C51.2969 15.6042 51.1068 15.2969 50.7734 15.0781C50.4401 14.8594 50.0313 14.75 49.5469 14.75C49.1927 14.75 48.8828 14.8073 48.6172 14.9219C48.3542 15.0365 48.1484 15.194 48 15.3945C47.8542 15.5951 47.7813 15.8229 47.7813 16.0781C47.7813 16.2917 47.832 16.4753 47.9336 16.6289C48.0378 16.7799 48.1706 16.9062 48.332 17.0078C48.4935 17.1068 48.6628 17.1888 48.8398 17.2539C49.0169 17.3164 49.1797 17.3672 49.3281 17.4062L50.1406 17.625C50.349 17.6797 50.5807 17.7552 50.8359 17.8516C51.0938 17.9479 51.3398 18.0794 51.5742 18.2461C51.8112 18.4102 52.0065 18.6211 52.1602 18.8789C52.3138 19.1367 52.3906 19.4531 52.3906 19.8281C52.3906 20.2604 52.2773 20.651 52.0508 21C51.8268 21.349 51.4987 21.6263 51.0664 21.832C50.6367 22.0378 50.1146 22.1406 49.5 22.1406C48.9271 22.1406 48.431 22.0482 48.0117 21.8633C47.5951 21.6784 47.2669 21.4206 47.0273 21.0898C46.7904 20.7591 46.6563 20.375 46.625 19.9375H47.625C47.651 20.2396 47.7526 20.4896 47.9297 20.6875C48.1094 20.8828 48.3359 21.0286 48.6094 21.125C48.8854 21.2187 49.1823 21.2656 49.5 21.2656C49.8698 21.2656 50.2018 21.2057 50.4961 21.0859C50.7904 20.9635 51.0234 20.7943 51.1953 20.5781C51.3672 20.3594 51.4531 20.1042 51.4531 19.8125C51.4531 19.5469 51.3789 19.3307 51.2305 19.1641C51.082 18.9974 50.8867 18.862 50.6445 18.7578C50.4023 18.6536 50.1406 18.5625 49.8594 18.4844L48.875 18.2031C48.25 18.0234 47.7552 17.7669 47.3906 17.4336C47.026 17.1003 46.8438 16.6641 46.8438 16.125C46.8438 15.6771 46.9648 15.2865 47.207 14.9531C47.4518 14.6172 47.7799 14.3568 48.1914 14.1719C48.6055 13.9844 49.0677 13.8906 49.5781 13.8906C50.0938 13.8906 50.5521 13.9831 50.9531 14.168C51.3542 14.3503 51.6719 14.6003 51.9062 14.918C52.1432 15.2357 52.2682 15.5964 52.2813 16H51.3438ZM56.374 22.125C55.7959 22.125 55.2972 21.9974 54.8779 21.7422C54.4613 21.4844 54.1396 21.125 53.9131 20.6641C53.6891 20.2005 53.5771 19.6615 53.5771 19.0469C53.5771 18.4323 53.6891 17.8906 53.9131 17.4219C54.1396 16.9505 54.4548 16.5833 54.8584 16.3203C55.2646 16.0547 55.7386 15.9219 56.2803 15.9219C56.5928 15.9219 56.9014 15.974 57.2061 16.0781C57.5107 16.1823 57.7881 16.3516 58.0381 16.5859C58.2881 16.8177 58.4873 17.125 58.6357 17.5078C58.7842 17.8906 58.8584 18.362 58.8584 18.9219V19.3125H54.2334V18.5156H57.9209C57.9209 18.1771 57.8532 17.875 57.7178 17.6094C57.585 17.3437 57.3949 17.1341 57.1475 16.9805C56.9027 16.8268 56.6136 16.75 56.2803 16.75C55.9131 16.75 55.5954 16.8411 55.3271 17.0234C55.0615 17.2031 54.8571 17.4375 54.7139 17.7266C54.5706 18.0156 54.499 18.3255 54.499 18.6562V19.1875C54.499 19.6406 54.5771 20.0247 54.7334 20.3398C54.8923 20.6523 55.1123 20.8906 55.3936 21.0547C55.6748 21.2161 56.0016 21.2969 56.374 21.2969C56.6162 21.2969 56.835 21.263 57.0303 21.1953C57.2282 21.125 57.3988 21.0208 57.542 20.8828C57.6852 20.7422 57.7959 20.5677 57.874 20.3594L58.7646 20.6094C58.6709 20.9115 58.5133 21.1771 58.292 21.4062C58.0706 21.6328 57.7972 21.8099 57.4717 21.9375C57.1462 22.0625 56.7803 22.125 56.374 22.125ZM62.6982 22.125C62.1357 22.125 61.6514 21.9922 61.2451 21.7266C60.8389 21.4609 60.5264 21.0951 60.3076 20.6289C60.0889 20.1628 59.9795 19.6302 59.9795 19.0312C59.9795 18.4219 60.0915 17.8841 60.3154 17.418C60.542 16.9492 60.8571 16.5833 61.2607 16.3203C61.667 16.0547 62.141 15.9219 62.6826 15.9219C63.1045 15.9219 63.4847 16 63.8232 16.1562C64.1618 16.3125 64.4391 16.5312 64.6553 16.8125C64.8714 17.0937 65.0055 17.4219 65.0576 17.7969H64.1357C64.0654 17.5234 63.9092 17.2812 63.667 17.0703C63.4274 16.8568 63.1045 16.75 62.6982 16.75C62.3389 16.75 62.0238 16.8437 61.7529 17.0312C61.4847 17.2161 61.2751 17.4779 61.124 17.8164C60.9756 18.1523 60.9014 18.5469 60.9014 19C60.9014 19.4635 60.9743 19.8672 61.1201 20.2109C61.2686 20.5547 61.4769 20.8216 61.7451 21.0117C62.016 21.2018 62.3337 21.2969 62.6982 21.2969C62.9378 21.2969 63.1553 21.2552 63.3506 21.1719C63.5459 21.0885 63.7113 20.9688 63.8467 20.8125C63.9821 20.6562 64.0785 20.4687 64.1357 20.25H65.0576C65.0055 20.6042 64.8766 20.9232 64.6709 21.207C64.4678 21.4883 64.1982 21.7122 63.8623 21.8789C63.529 22.043 63.141 22.125 62.6982 22.125ZM69.0146 16V16.7812H65.9053V16H69.0146ZM66.8115 14.5625H67.7334V20.2812C67.7334 20.5417 67.7712 20.737 67.8467 20.8672C67.9248 20.9948 68.0238 21.0807 68.1436 21.125C68.266 21.1667 68.3949 21.1875 68.5303 21.1875C68.6318 21.1875 68.7152 21.1823 68.7803 21.1719C68.8454 21.1589 68.8975 21.1484 68.9365 21.1406L69.124 21.9687C69.0615 21.9922 68.9743 22.0156 68.8623 22.0391C68.7503 22.0651 68.6084 22.0781 68.4365 22.0781C68.1761 22.0781 67.9209 22.0221 67.6709 21.9102C67.4235 21.7982 67.2178 21.6276 67.0537 21.3984C66.8923 21.1693 66.8115 20.8802 66.8115 20.5312V14.5625ZM70.4014 22V16H71.3232V22H70.4014ZM70.8701 15C70.6904 15 70.5355 14.9388 70.4053 14.8164C70.2777 14.694 70.2139 14.5469 70.2139 14.375C70.2139 14.2031 70.2777 14.056 70.4053 13.9336C70.5355 13.8112 70.6904 13.75 70.8701 13.75C71.0498 13.75 71.2035 13.8112 71.3311 13.9336C71.4613 14.056 71.5264 14.2031 71.5264 14.375C71.5264 14.5469 71.4613 14.694 71.3311 14.8164C71.2035 14.9388 71.0498 15 70.8701 15ZM75.4492 22.125C74.9076 22.125 74.4323 21.9961 74.0234 21.7383C73.6172 21.4805 73.2995 21.1198 73.0703 20.6562C72.8438 20.1927 72.7305 19.651 72.7305 19.0312C72.7305 18.4062 72.8438 17.8607 73.0703 17.3945C73.2995 16.9284 73.6172 16.5664 74.0234 16.3086C74.4323 16.0508 74.9076 15.9219 75.4492 15.9219C75.9909 15.9219 76.4648 16.0508 76.8711 16.3086C77.2799 16.5664 77.5977 16.9284 77.8242 17.3945C78.0534 17.8607 78.168 18.4062 78.168 19.0312C78.168 19.651 78.0534 20.1927 77.8242 20.6562C77.5977 21.1198 77.2799 21.4805 76.8711 21.7383C76.4648 21.9961 75.9909 22.125 75.4492 22.125ZM75.4492 21.2969C75.8607 21.2969 76.1992 21.1914 76.4648 20.9805C76.7305 20.7695 76.9271 20.4922 77.0547 20.1484C77.1823 19.8047 77.2461 19.4323 77.2461 19.0312C77.2461 18.6302 77.1823 18.2565 77.0547 17.9102C76.9271 17.5638 76.7305 17.2839 76.4648 17.0703C76.1992 16.8568 75.8607 16.75 75.4492 16.75C75.0378 16.75 74.6992 16.8568 74.4336 17.0703C74.168 17.2839 73.9714 17.5638 73.8438 17.9102C73.7161 18.2565 73.6523 18.6302 73.6523 19.0312C73.6523 19.4323 73.7161 19.8047 73.8438 20.1484C73.9714 20.4922 74.168 20.7695 74.4336 20.9805C74.6992 21.1914 75.0378 21.2969 75.4492 21.2969ZM80.4971 18.3906V22H79.5752V16H80.4658V16.9375H80.5439C80.6846 16.6328 80.8981 16.388 81.1846 16.2031C81.471 16.0156 81.8408 15.9219 82.2939 15.9219C82.7002 15.9219 83.0557 16.0052 83.3604 16.1719C83.665 16.3359 83.902 16.5859 84.0713 16.9219C84.2406 17.2552 84.3252 17.6771 84.3252 18.1875V22H83.4033V18.25C83.4033 17.7786 83.2809 17.4115 83.0361 17.1484C82.7913 16.8828 82.4554 16.75 82.0283 16.75C81.734 16.75 81.471 16.8138 81.2393 16.9414C81.0101 17.069 80.8291 17.2552 80.6963 17.5C80.5635 17.7448 80.4971 18.0417 80.4971 18.3906ZM88.9004 20.3594V19.5625L92.416 14H92.9941V15.2344H92.6035L89.9473 19.4375V19.5H94.6816V20.3594H88.9004ZM92.666 22V20.1172V19.7461V14H93.5879V22H92.666ZM95.958 20.3594V19.5625L99.4736 14H100.052V15.2344H99.6611L97.0049 19.4375V19.5H101.739V20.3594H95.958ZM99.7236 22V20.1172V19.7461V14H100.646V22H99.7236Z" fill="white"/>
</svg>
