<svg xmlns="http://www.w3.org/2000/svg" width="101" height="83" viewBox="0 0 101 83" fill="none">
  <path d="M1 59.9391L2.02323 1.86082C2.02732 1.62881 2.12327 1.4079 2.29002 1.24654C2.45345 1.08841 2.67194 1 2.89935 1H16.4582H32.9482H46.3463L53.4658 1.41135C54.4871 1.47036 55.5024 1.60765 56.5027 1.822L62 3L69.821 5.607C71.5982 6.1994 73.2833 7.03854 74.827 8.09983L79.0682 11.0156C80.0209 11.6706 80.9151 12.407 81.7406 13.2165L88.5709 19.9144C90.6285 21.9321 92.2258 24.3706 93.2533 27.0629L97.0789 37.0865C97.6904 38.6889 98.0933 40.3632 98.2777 42.0683L99.9773 57.7901C99.9924 57.9296 99.9907 58.0703 99.9724 58.2093L99.6663 60.5314C99.4093 62.4809 96.5366 62.3151 96.5055 60.349C96.5019 60.1191 96.4483 59.8927 96.3486 59.6855L96.0005 58.9627C93.6802 54.1441 86.4794 55.4959 86.0646 60.828L85.5199 67.8307C85.5134 67.915 85.517 67.9997 85.5308 68.0831C85.7406 69.3512 83.9234 69.8105 83.5054 68.5951L80.05 58.547C79.3547 56.525 76.3785 56.9518 76.2794 59.0877L75.9948 65.2211C75.8783 67.7303 72.9905 69.0749 70.9952 67.549L70.8059 67.4041C70.0051 66.7917 69.5354 65.8411 69.5354 64.833V58.59C69.5354 57.8287 69.4207 57.0718 69.1952 56.3448L63.653 38.4774C62.6279 35.1726 57.8398 35.5275 57.3132 38.9474C56.7518 42.5936 51.5193 42.6519 50.8768 39.019L49.7669 32.7435C49.4809 31.1263 47.3298 30.7511 46.5132 32.1759C46.4029 32.3682 46.3301 32.5797 46.2985 32.7991L46.2515 33.1259C45.6901 37.0259 40.1031 37.1445 39.3767 33.2719L38.5762 29.0044C38.292 27.4893 37.0788 26.3206 35.5541 26.0932C33.3677 25.7672 31.4027 27.4609 31.4027 29.6714V77.5142C31.4027 80.0783 27.6928 80.4268 27.2153 77.9075C26.8119 75.7795 23.8294 75.6211 23.1237 77.6688C22.4153 79.7246 19.4305 79.5954 18.9814 77.4679L17.7996 71.869C17.4181 70.0616 15.2761 69.2772 13.8176 70.4109C13.2081 70.8847 12.8515 71.6134 12.8515 72.3855V79.5402C12.8515 80.1058 12.6436 80.6516 12.2675 81.0738C10.9251 82.5809 8.4312 81.758 8.24941 79.7479L7.63691 72.9758C7.48333 71.2778 5.2902 70.7018 4.32216 72.1053C3.30694 73.5772 1 72.8587 1 71.0707V59.9391Z" fill="#FFB000" stroke="black"/>
</svg>

