<svg xmlns="http://www.w3.org/2000/svg" width="35" height="34" viewBox="0 0 35 34" fill="none">
  <path d="M33.5601 9.00789L34.0486 26.4266C34.1204 28.9857 32.1877 31.1586 29.6376 31.3856L6.85214 33.4144C3.88192 33.6789 1.30323 31.3852 1.21963 28.4044L1.7096 13.1432C1.79359 10.527 5.36136 9.83155 6.42178 12.2247C7.19748 13.9753 9.58679 14.2095 10.6876 12.6428L10.7516 12.5518C11.8553 10.981 14.2387 11.1675 15.0846 12.8908L15.9932 14.7418C16.6074 15.993 18.078 16.5646 19.376 16.0567C20.4673 15.6296 21.1546 14.543 21.073 13.3739L20.3383 2.85838C20.2783 0.718831 23.3636 0.336777 23.8273 2.42634L25.1424 8.35297C25.6277 10.5402 28.7121 10.6316 29.326 8.47686C30.0026 6.10234 33.4909 6.53983 33.5601 9.00789Z" fill="#FFB000" stroke="black"/>
</svg>
