<svg xmlns="http://www.w3.org/2000/svg" width="95" height="96" viewBox="0 0 95 96" fill="none">
  <path d="M47.3772 12.5H31.2458C30.7493 12.5 30.2535 12.463 29.7624 12.3894L14.8537 10.153C12.0797 9.73695 9.25847 10.5051 7.07828 12.27L3.70802 14.9983C1.36263 16.8969 0 19.7531 0 22.7707V32.5V38.1895C0 39.7252 1.77634 40.5789 2.97549 39.6196C3.96309 38.8295 5.43525 39.2545 5.8498 40.4494L8.0753 46.8641C9.34695 50.5294 14.5306 50.5294 15.8022 46.8641C17.146 42.9911 22.7183 43.284 23.6484 47.2766L28.2682 67.1057C29.513 72.4487 37.2829 71.9259 37.8008 66.4644L39.2018 51.69C39.4494 49.0791 43.1545 48.8076 43.78 51.3545L44.3446 53.6528C44.8858 55.8564 48.108 55.5569 48.2338 53.2914L48.5494 47.6099C48.6239 46.2693 50.5357 46.1035 50.8398 47.4113C51.1626 48.799 53.2186 48.4978 53.1297 47.0758L53.0175 45.2797C53.006 45.0953 53.0335 44.9106 53.0984 44.7376L53.2181 44.4184C53.9634 42.431 56.8643 42.7356 57.1805 44.8344C57.5599 47.3523 61.274 47.0741 61.274 44.5277V38.2577C61.274 37.0821 62.0844 36.0617 63.2294 35.7954L64.3174 35.5425C64.4387 35.5143 64.5563 35.4719 64.6677 35.4161C65.5956 34.9522 66.7119 35.4887 66.9292 36.5031L70.251 52.0049C70.4833 53.0889 71.9713 53.2336 72.4081 52.2145C72.4687 52.073 72.5 51.9206 72.5 51.7666V36.876C72.5 35.6508 72.8494 34.451 73.5072 33.4173L74.4058 32.0052C75.3578 30.5091 77.1604 29.7901 78.8808 30.2202L80.402 30.6005C82.2296 31.0574 84 29.6751 84 27.7913V26.1412C84 24.4349 85.948 23.461 87.313 24.4847L87.4529 24.5897C88.6217 25.4663 90.3044 24.8042 90.5625 23.3662L91.2135 19.739C91.3701 18.8665 92.5687 18.7384 92.9063 19.5581C93.1681 20.1941 94.023 20.3027 94.4356 19.7525L94.6687 19.4418C94.8773 19.1636 94.9432 18.8036 94.8466 18.4695L92.8942 11.7179C92.1613 9.18327 90.4563 7.041 88.1508 5.7579L82.8572 2.81184C81.4622 2.03547 79.7214 2.27861 78.5925 3.40751C77.6194 4.38061 76.174 4.70846 74.8763 4.25045L68.3761 1.95628C66.0189 1.12433 63.4111 2.17783 62.2932 4.41365C62.0986 4.80285 61.8536 5.16474 61.5645 5.48997L59.7759 7.50211C58.6124 8.81106 57.1255 9.79149 55.4641 10.3453L50.5395 11.9868C49.5198 12.3267 48.452 12.5 47.3772 12.5Z" fill="#FFB000"/>
</svg>