<svg xmlns="http://www.w3.org/2000/svg" width="81" height="60" viewBox="0 0 81 60" fill="none">
  <path d="M42.1266 26.4617L33.1685 30.3436C31.6555 30.9992 29.8921 30.3967 29.0967 28.9523L28.4596 27.7953C27.5762 26.1912 25.2981 26.1173 24.3125 27.6607L24.2403 27.7738C23.3861 29.1114 21.4702 29.2135 20.4787 27.9742C19.4992 26.7498 17.6117 26.8317 16.742 28.1364L16.1723 28.9911C15.2791 30.3312 13.4209 30.6008 12.1837 29.5697C10.5642 28.2202 8.09179 29.1559 7.77155 31.2394L6.02967 42.5725C6.01006 42.7 5.9813 42.826 5.9436 42.9494C5.06514 45.8258 0.846895 45.311 0.68603 42.3078L0 29.5V12.5V6V2.29036C0 1.51976 0.493082 0.835615 1.22412 0.5919C1.4067 0.531032 1.5979 0.5 1.79036 0.5H11.9998H36.9998L58.2498 0.75H77.5C78.6425 0.892825 79.4998 1.86398 79.4999 3.01534L79.5 4.5L79.4998 12.5V24.236V42.5L79.726 46.3475C79.8684 48.7686 76.5074 49.5188 75.6067 47.2669C75.5359 47.0898 75.4891 46.9039 75.4675 46.7144L73.3964 28.4896C73.192 26.6919 71.3844 25.5384 69.6679 26.1105L69.2571 26.2474C68.7736 26.4086 68.3783 26.7625 68.1647 27.2252L67.3215 29.0524C66.7921 30.1997 65.092 29.943 64.925 28.6905C64.7732 27.553 63.305 27.1921 62.6432 28.1296L60.4889 31.1816C59.4736 32.6199 57.3817 32.7332 56.217 31.4131L53.2026 27.9967C52.4353 27.127 50.9998 27.6697 50.9998 28.8296C50.9998 28.9427 50.9845 29.0553 50.9544 29.1643L50.9062 29.3391C50.1337 32.1395 46.0474 31.7537 45.8126 28.8582L45.7969 28.6642C45.6511 26.8665 43.7815 25.7446 42.1266 26.4617Z" fill="#FFB000"/>
</svg>