<svg xmlns="http://www.w3.org/2000/svg" width="21" height="38" viewBox="0 0 21 38" fill="none">
  <path d="M8.1987 29.487L7.36648 21.1648C7.26887 20.1887 5.93559 19.9836 5.54918 20.8852C5.15659 21.8013 3.79799 21.5709 3.72942 20.5766L3.15209 12.2052C3.11659 11.6905 2.405 11.5867 2.22385 12.0697C2.01553 12.6253 1.18255 12.3829 1.30477 11.8023L2.94082 4.03112C2.9796 3.8469 3.06579 3.67599 3.19086 3.53528L4.1593 2.44579C4.71466 1.821 5.38415 1.30793 6.13183 0.934086L6.34783 0.826086C7.43434 0.282828 8.63242 0 9.84718 0H11.5H12.937C13.6411 0 14.3405 0.113509 15.0085 0.336158L15.1868 0.395605C16.3661 0.788689 17.393 1.54042 18.1242 2.54571L18.4239 2.95786C18.8022 3.47797 19.0468 4.0831 19.1361 4.71997L20.6502 15.5079C20.7525 16.2363 19.8409 16.6478 19.3622 16.0893C18.9097 15.5614 18.0451 15.8972 18.0675 16.5921L18.1669 19.6724C18.2053 20.8645 16.4868 21.0842 16.2241 19.9208C15.9818 18.848 14.4296 18.9208 14.2888 20.0116L13.0572 29.5566C13.0194 29.8498 12.9287 30.1336 12.7896 30.3945C11.652 32.5275 8.43924 31.8924 8.1987 29.487Z" fill="#FFB000"/>
</svg>