<svg xmlns="http://www.w3.org/2000/svg" width="32" height="64" viewBox="0 0 32 64" fill="none">
  <path d="M16.9936 0H11.2436H8.3686H6.9311C6.13719 0 5.4936 0.643591 5.4936 1.4375V2V3.17237C5.4936 3.72318 5.44809 4.27305 5.35754 4.81636L4.9936 7L4.4982 9.47701C4.49514 9.49231 4.49089 9.50736 4.48549 9.522C4.35488 9.87652 1.92754 15.932 1.81603 16.293C1.58589 17.038 1.31398 17.9321 0.9936 19C-1.0207 25.7143 0.45888 29.2729 1.64862 30.8865C2.11946 31.5251 2.97621 31.2579 3.2135 30.5008C3.62129 29.1997 5.53545 29.4648 5.57439 30.8277L5.71789 35.8501C5.75757 37.2391 7.74918 37.4243 8.04435 36.0665C8.33224 34.7422 10.262 34.8736 10.3677 36.2247L10.9004 43.0307C11.0751 45.2637 14.2768 45.4514 14.7113 43.2541C15.1063 41.2562 17.9271 41.1575 18.4607 43.1229L20.1498 49.3438C20.5428 50.791 22.6939 50.3952 22.5459 48.9028L21.4464 37.8162C21.3422 36.7654 22.7463 36.3172 23.2702 37.234C23.8124 38.1829 25.2661 37.6643 25.0852 36.5865L24.9634 35.8607C24.8294 35.062 25.8282 34.5898 26.3604 35.2004L26.6007 35.4761C26.9539 35.8813 27.6196 35.6891 27.7025 35.158C27.7966 34.5541 28.6076 34.4217 28.8889 34.9643L29.2604 35.6807C29.7186 36.5645 31.0606 36.1551 30.9475 35.1661L29.5 22.5L28.7886 16.4534C28.732 15.9724 29.3882 15.7763 29.6048 16.2096C29.8293 16.6587 30.5102 16.4285 30.4162 15.9353L29.5986 11.6425C29.5138 11.1972 30.1362 10.9996 30.3238 11.4123C30.5086 11.8189 31.1215 11.6342 31.0509 11.1932L29.5212 1.63252C29.5071 1.54431 29.5 1.45512 29.5 1.36579V0.75V0.375C29.5 0.167893 29.3321 0 29.125 0H27.5593H25.6186H22.7436H16.9936Z" fill="#FFB000"/>
</svg>