<svg xmlns="http://www.w3.org/2000/svg" width="35" height="101" viewBox="0 0 35 101" fill="none">
  <path d="M1.40136 86.3L1.0125 3.65622C1.00561 2.19126 2.19127 1 3.65625 1H18H31.7059C33.393 1 34.6434 2.56689 34.2689 4.21199C34.2253 4.4034 34.2033 4.59908 34.2033 4.79538V11.5V22.4128L33.4067 43.8256V77.5671C33.4067 80.2048 29.5949 80.5734 29.0895 77.9846C28.6647 75.8083 25.6164 75.6488 24.8747 77.7384C24.1286 79.8405 21.0719 79.7112 20.5981 77.5315L19.3894 71.9713C18.9889 70.129 16.8137 69.3224 15.3088 70.4581C14.662 70.9463 14.2817 71.7097 14.2817 72.5201V97.8743C14.2817 97.9581 14.2757 98.0417 14.2639 98.1246C13.9649 100.213 10.9176 100.114 10.7551 98.0104L9.88564 86.7597C9.68987 84.2263 6.02414 84.0943 5.64666 86.6071C5.2552 89.213 1.41376 88.9351 1.40136 86.3Z" fill="#FFB000" stroke="black"/>
</svg>