<svg xmlns="http://www.w3.org/2000/svg" width="36" height="34" viewBox="0 0 36 34" fill="none">
  <path d="M1 24.9307V7.69438C1 5.05831 3.05476 2.87913 5.68628 2.72434L29.5095 1.32297C32.4882 1.14775 35 3.51613 35 6.5L34.0543 21.6864C33.8867 24.3783 30.2042 25.0082 29.1513 22.5252C28.388 20.7253 25.9686 20.4142 24.7749 21.9625L24.6846 22.0797C23.479 23.6434 21.0466 23.3802 20.2035 21.5947L19.3374 19.7606C18.7302 18.4749 17.2514 17.8538 15.9083 18.3205C14.7475 18.7238 13.9887 19.8409 14.0417 21.0687L14.4921 31.5C14.4921 33.7054 11.3077 34.0196 10.8767 31.8567L9.68606 25.8816C9.23603 23.6232 6.07898 23.4356 5.3646 25.6248C4.57466 28.0455 1 27.477 1 24.9307Z" fill="#FFB000" stroke="black"/>
</svg>
